<?xml version="1.0" encoding="utf-8"?>
<!-- Generator: Adobe Illustrator 21.0.0, SVG Export Plug-In . SVG Version: 6.00 Build 0)  -->
<svg version="1.1" id="Layer_1" xmlns="http://www.w3.org/2000/svg" xmlns:xlink="http://www.w3.org/1999/xlink" x="0px" y="0px"
	 viewBox="0 0 688.4 355.2" style="enable-background:new 0 0 688.4 355.2;" xml:space="preserve">
<style type="text/css">
	.st0{opacity:0.5;}
	.st1{fill:#009187;}
</style>
<title>Asset 20</title>
<g id="Layer_2">
	<g id="patterns-blend">
		<g class="st0">
			<circle class="st1" cx="3.4" cy="3.4" r="3.4"/>
			<circle class="st1" cx="30.7" cy="3.4" r="3.4"/>
			<circle class="st1" cx="57.9" cy="3.4" r="3.4"/>
			<circle class="st1" cx="85.2" cy="3.4" r="3.4"/>
			<circle class="st1" cx="112.5" cy="3.4" r="3.4"/>
			<circle class="st1" cx="139.7" cy="3.4" r="3.4"/>
			<circle class="st1" cx="167" cy="3.4" r="3.4"/>
			<circle class="st1" cx="194.2" cy="3.4" r="3.4"/>
			<circle class="st1" cx="221.5" cy="3.4" r="3.4"/>
			<circle class="st1" cx="248.8" cy="3.4" r="3.4"/>
			<circle class="st1" cx="276" cy="3.4" r="3.4"/>
			<circle class="st1" cx="303.3" cy="3.4" r="3.4"/>
			<circle class="st1" cx="330.6" cy="3.8" r="3.4"/>
		</g>
		<g class="st0">
			<circle class="st1" cx="3.4" cy="23.4" r="3.4"/>
			<circle class="st1" cx="30.7" cy="23.4" r="3.4"/>
			<circle class="st1" cx="57.9" cy="23.4" r="3.4"/>
			<circle class="st1" cx="85.2" cy="23.4" r="3.4"/>
			<circle class="st1" cx="112.5" cy="23.4" r="3.4"/>
			<circle class="st1" cx="139.7" cy="23.4" r="3.4"/>
			<circle class="st1" cx="167" cy="23.4" r="3.4"/>
			<circle class="st1" cx="194.2" cy="23.4" r="3.4"/>
			<circle class="st1" cx="221.5" cy="23.4" r="3.4"/>
			<circle class="st1" cx="248.8" cy="23.4" r="3.4"/>
			<circle class="st1" cx="276" cy="23.4" r="3.4"/>
			<circle class="st1" cx="303.3" cy="23.4" r="3.4"/>
			<circle class="st1" cx="330.6" cy="23.8" r="3.4"/>
		</g>
		<g class="st0">
			<circle class="st1" cx="3.4" cy="43.4" r="3.4"/>
			<circle class="st1" cx="30.7" cy="43.4" r="3.4"/>
			<circle class="st1" cx="57.9" cy="43.4" r="3.4"/>
			<circle class="st1" cx="85.2" cy="43.4" r="3.4"/>
			<circle class="st1" cx="112.5" cy="43.4" r="3.4"/>
			<circle class="st1" cx="139.7" cy="43.4" r="3.4"/>
			<circle class="st1" cx="167" cy="43.4" r="3.4"/>
			<circle class="st1" cx="194.2" cy="43.4" r="3.4"/>
			<circle class="st1" cx="221.5" cy="43.4" r="3.4"/>
			<circle class="st1" cx="248.8" cy="43.4" r="3.4"/>
			<circle class="st1" cx="276" cy="43.4" r="3.4"/>
			<circle class="st1" cx="303.3" cy="43.4" r="3.4"/>
			<circle class="st1" cx="330.6" cy="43.8" r="3.4"/>
		</g>
		<g class="st0">
			<circle class="st1" cx="3.4" cy="63.4" r="3.4"/>
			<circle class="st1" cx="30.7" cy="63.4" r="3.4"/>
			<circle class="st1" cx="57.9" cy="63.4" r="3.4"/>
			<circle class="st1" cx="85.2" cy="63.4" r="3.4"/>
			<circle class="st1" cx="112.5" cy="63.4" r="3.4"/>
			<circle class="st1" cx="139.7" cy="63.4" r="3.4"/>
			<circle class="st1" cx="167" cy="63.4" r="3.4"/>
			<circle class="st1" cx="194.2" cy="63.4" r="3.4"/>
			<circle class="st1" cx="221.5" cy="63.4" r="3.4"/>
			<circle class="st1" cx="248.8" cy="63.4" r="3.4"/>
			<circle class="st1" cx="276" cy="63.4" r="3.4"/>
			<circle class="st1" cx="303.3" cy="63.4" r="3.4"/>
			<circle class="st1" cx="330.6" cy="63.8" r="3.4"/>
		</g>
		<g class="st0">
			<circle class="st1" cx="3.4" cy="83.4" r="3.4"/>
			<circle class="st1" cx="30.7" cy="83.4" r="3.4"/>
			<circle class="st1" cx="57.9" cy="83.4" r="3.4"/>
			<circle class="st1" cx="85.2" cy="83.4" r="3.4"/>
			<circle class="st1" cx="112.5" cy="83.4" r="3.4"/>
			<circle class="st1" cx="139.7" cy="83.4" r="3.4"/>
			<circle class="st1" cx="167" cy="83.4" r="3.4"/>
			<circle class="st1" cx="194.2" cy="83.4" r="3.4"/>
			<circle class="st1" cx="221.5" cy="83.4" r="3.4"/>
			<circle class="st1" cx="248.8" cy="83.4" r="3.4"/>
			<circle class="st1" cx="276" cy="83.4" r="3.4"/>
			<circle class="st1" cx="303.3" cy="83.4" r="3.4"/>
			<circle class="st1" cx="330.6" cy="83.8" r="3.4"/>
		</g>
		<g class="st0">
			<circle class="st1" cx="3.4" cy="103.4" r="3.4"/>
			<circle class="st1" cx="30.7" cy="103.4" r="3.4"/>
			<circle class="st1" cx="57.9" cy="103.4" r="3.4"/>
			<circle class="st1" cx="85.2" cy="103.4" r="3.4"/>
			<circle class="st1" cx="112.5" cy="103.4" r="3.4"/>
			<circle class="st1" cx="139.7" cy="103.4" r="3.4"/>
			<circle class="st1" cx="167" cy="103.4" r="3.4"/>
			<circle class="st1" cx="194.2" cy="103.4" r="3.4"/>
			<circle class="st1" cx="221.5" cy="103.4" r="3.4"/>
			<circle class="st1" cx="248.8" cy="103.4" r="3.4"/>
			<circle class="st1" cx="276" cy="103.4" r="3.4"/>
			<circle class="st1" cx="303.3" cy="103.4" r="3.4"/>
			<circle class="st1" cx="330.6" cy="103.8" r="3.4"/>
		</g>
		<g class="st0">
			<circle class="st1" cx="3.4" cy="123.4" r="3.4"/>
			<circle class="st1" cx="30.7" cy="123.4" r="3.4"/>
			<circle class="st1" cx="57.9" cy="123.4" r="3.4"/>
			<circle class="st1" cx="85.2" cy="123.4" r="3.4"/>
			<circle class="st1" cx="112.5" cy="123.4" r="3.4"/>
			<circle class="st1" cx="139.7" cy="123.4" r="3.4"/>
			<circle class="st1" cx="167" cy="123.4" r="3.4"/>
			<circle class="st1" cx="194.2" cy="123.4" r="3.4"/>
			<circle class="st1" cx="221.5" cy="123.4" r="3.4"/>
			<circle class="st1" cx="248.8" cy="123.4" r="3.4"/>
			<circle class="st1" cx="276" cy="123.4" r="3.4"/>
			<circle class="st1" cx="303.3" cy="123.4" r="3.4"/>
			<circle class="st1" cx="330.6" cy="123.8" r="3.4"/>
		</g>
		<g class="st0">
			<circle class="st1" cx="3.4" cy="143.4" r="3.4"/>
			<circle class="st1" cx="30.7" cy="143.4" r="3.4"/>
			<circle class="st1" cx="57.9" cy="143.4" r="3.4"/>
			<circle class="st1" cx="85.2" cy="143.4" r="3.4"/>
			<circle class="st1" cx="112.5" cy="143.4" r="3.4"/>
			<circle class="st1" cx="139.7" cy="143.4" r="3.4"/>
			<circle class="st1" cx="167" cy="143.4" r="3.4"/>
			<circle class="st1" cx="194.2" cy="143.4" r="3.4"/>
			<circle class="st1" cx="221.5" cy="143.4" r="3.4"/>
			<circle class="st1" cx="248.8" cy="143.4" r="3.4"/>
			<circle class="st1" cx="276" cy="143.4" r="3.4"/>
			<circle class="st1" cx="303.3" cy="143.4" r="3.4"/>
			<circle class="st1" cx="330.6" cy="143.8" r="3.4"/>
		</g>
		<g class="st0">
			<circle class="st1" cx="3.4" cy="163.4" r="3.4"/>
			<circle class="st1" cx="30.7" cy="163.4" r="3.4"/>
			<circle class="st1" cx="57.9" cy="163.4" r="3.4"/>
			<circle class="st1" cx="85.2" cy="163.4" r="3.4"/>
			<circle class="st1" cx="112.5" cy="163.4" r="3.4"/>
			<circle class="st1" cx="139.7" cy="163.4" r="3.4"/>
			<circle class="st1" cx="167" cy="163.4" r="3.4"/>
			<circle class="st1" cx="194.2" cy="163.4" r="3.4"/>
			<circle class="st1" cx="221.5" cy="163.4" r="3.4"/>
			<circle class="st1" cx="248.8" cy="163.4" r="3.4"/>
			<circle class="st1" cx="276" cy="163.4" r="3.4"/>
			<circle class="st1" cx="303.3" cy="163.4" r="3.4"/>
			<circle class="st1" cx="330.6" cy="163.8" r="3.4"/>
		</g>
	</g>
</g>
<title>Asset 20</title>
<g id="Layer_2_1_">
	<g id="patterns-blend_1_">
		<g class="st0">
			<circle class="st1" cx="357.8" cy="4.1" r="3.4"/>
			<circle class="st1" cx="385.1" cy="4.1" r="3.4"/>
			<circle class="st1" cx="412.4" cy="4.1" r="3.4"/>
			<circle class="st1" cx="439.6" cy="4.1" r="3.4"/>
			<circle class="st1" cx="466.9" cy="4.1" r="3.4"/>
			<circle class="st1" cx="494.1" cy="4.1" r="3.4"/>
			<circle class="st1" cx="521.4" cy="4.1" r="3.4"/>
			<circle class="st1" cx="548.7" cy="4.1" r="3.4"/>
			<circle class="st1" cx="575.9" cy="4.1" r="3.4"/>
			<circle class="st1" cx="603.2" cy="4.1" r="3.4"/>
			<circle class="st1" cx="630.5" cy="4.1" r="3.4"/>
			<circle class="st1" cx="657.7" cy="4.1" r="3.4"/>
			<circle class="st1" cx="685" cy="4.5" r="3.4"/>
		</g>
		<g class="st0">
			<circle class="st1" cx="357.8" cy="24.1" r="3.4"/>
			<circle class="st1" cx="385.1" cy="24.1" r="3.4"/>
			<circle class="st1" cx="412.4" cy="24.1" r="3.4"/>
			<circle class="st1" cx="439.6" cy="24.1" r="3.4"/>
			<circle class="st1" cx="466.9" cy="24.1" r="3.4"/>
			<circle class="st1" cx="494.1" cy="24.1" r="3.4"/>
			<circle class="st1" cx="521.4" cy="24.1" r="3.4"/>
			<circle class="st1" cx="548.7" cy="24.1" r="3.4"/>
			<circle class="st1" cx="575.9" cy="24.1" r="3.4"/>
			<circle class="st1" cx="603.2" cy="24.1" r="3.4"/>
			<circle class="st1" cx="630.5" cy="24.1" r="3.4"/>
			<circle class="st1" cx="657.7" cy="24.1" r="3.4"/>
			<circle class="st1" cx="685" cy="24.5" r="3.4"/>
		</g>
		<g class="st0">
			<circle class="st1" cx="357.8" cy="44.1" r="3.4"/>
			<circle class="st1" cx="385.1" cy="44.1" r="3.4"/>
			<circle class="st1" cx="412.4" cy="44.1" r="3.4"/>
			<circle class="st1" cx="439.6" cy="44.1" r="3.4"/>
			<circle class="st1" cx="466.9" cy="44.1" r="3.4"/>
			<circle class="st1" cx="494.1" cy="44.1" r="3.4"/>
			<circle class="st1" cx="521.4" cy="44.1" r="3.4"/>
			<circle class="st1" cx="548.7" cy="44.1" r="3.4"/>
			<circle class="st1" cx="575.9" cy="44.1" r="3.4"/>
			<circle class="st1" cx="603.2" cy="44.1" r="3.4"/>
			<circle class="st1" cx="630.5" cy="44.1" r="3.4"/>
			<circle class="st1" cx="657.7" cy="44.1" r="3.4"/>
			<circle class="st1" cx="685" cy="44.5" r="3.4"/>
		</g>
		<g class="st0">
			<circle class="st1" cx="357.8" cy="64.1" r="3.4"/>
			<circle class="st1" cx="385.1" cy="64.1" r="3.4"/>
			<circle class="st1" cx="412.4" cy="64.1" r="3.4"/>
			<circle class="st1" cx="439.6" cy="64.1" r="3.4"/>
			<circle class="st1" cx="466.9" cy="64.1" r="3.4"/>
			<circle class="st1" cx="494.1" cy="64.1" r="3.4"/>
			<circle class="st1" cx="521.4" cy="64.1" r="3.4"/>
			<circle class="st1" cx="548.7" cy="64.1" r="3.4"/>
			<circle class="st1" cx="575.9" cy="64.1" r="3.4"/>
			<circle class="st1" cx="603.2" cy="64.1" r="3.4"/>
			<circle class="st1" cx="630.5" cy="64.1" r="3.4"/>
			<circle class="st1" cx="657.7" cy="64.1" r="3.4"/>
			<circle class="st1" cx="685" cy="64.5" r="3.4"/>
		</g>
		<g class="st0">
			<circle class="st1" cx="357.8" cy="84.1" r="3.4"/>
			<circle class="st1" cx="385.1" cy="84.1" r="3.4"/>
			<circle class="st1" cx="412.4" cy="84.1" r="3.4"/>
			<circle class="st1" cx="439.6" cy="84.1" r="3.4"/>
			<circle class="st1" cx="466.9" cy="84.1" r="3.4"/>
			<circle class="st1" cx="494.1" cy="84.1" r="3.4"/>
			<circle class="st1" cx="521.4" cy="84.1" r="3.4"/>
			<circle class="st1" cx="548.7" cy="84.1" r="3.4"/>
			<circle class="st1" cx="575.9" cy="84.1" r="3.4"/>
			<circle class="st1" cx="603.2" cy="84.1" r="3.4"/>
			<circle class="st1" cx="630.5" cy="84.1" r="3.4"/>
			<circle class="st1" cx="657.7" cy="84.1" r="3.4"/>
			<circle class="st1" cx="685" cy="84.5" r="3.4"/>
		</g>
		<g class="st0">
			<circle class="st1" cx="357.8" cy="104.1" r="3.4"/>
			<circle class="st1" cx="385.1" cy="104.1" r="3.4"/>
			<circle class="st1" cx="412.4" cy="104.1" r="3.4"/>
			<circle class="st1" cx="439.6" cy="104.1" r="3.4"/>
			<circle class="st1" cx="466.9" cy="104.1" r="3.4"/>
			<circle class="st1" cx="494.1" cy="104.1" r="3.4"/>
			<circle class="st1" cx="521.4" cy="104.1" r="3.4"/>
			<circle class="st1" cx="548.7" cy="104.1" r="3.4"/>
			<circle class="st1" cx="575.9" cy="104.1" r="3.4"/>
			<circle class="st1" cx="603.2" cy="104.1" r="3.4"/>
			<circle class="st1" cx="630.5" cy="104.1" r="3.4"/>
			<circle class="st1" cx="657.7" cy="104.1" r="3.4"/>
			<circle class="st1" cx="685" cy="104.5" r="3.4"/>
		</g>
		<g class="st0">
			<circle class="st1" cx="357.8" cy="124.1" r="3.4"/>
			<circle class="st1" cx="385.1" cy="124.1" r="3.4"/>
			<circle class="st1" cx="412.4" cy="124.1" r="3.4"/>
			<circle class="st1" cx="439.6" cy="124.1" r="3.4"/>
			<circle class="st1" cx="466.9" cy="124.1" r="3.4"/>
			<circle class="st1" cx="494.1" cy="124.1" r="3.4"/>
			<circle class="st1" cx="521.4" cy="124.1" r="3.4"/>
			<circle class="st1" cx="548.7" cy="124.1" r="3.4"/>
			<circle class="st1" cx="575.9" cy="124.1" r="3.4"/>
			<circle class="st1" cx="603.2" cy="124.1" r="3.4"/>
			<circle class="st1" cx="630.5" cy="124.1" r="3.4"/>
			<circle class="st1" cx="657.7" cy="124.1" r="3.4"/>
			<circle class="st1" cx="685" cy="124.5" r="3.4"/>
		</g>
		<g class="st0">
			<circle class="st1" cx="357.8" cy="144.1" r="3.4"/>
			<circle class="st1" cx="385.1" cy="144.1" r="3.4"/>
			<circle class="st1" cx="412.4" cy="144.1" r="3.4"/>
			<circle class="st1" cx="439.6" cy="144.1" r="3.4"/>
			<circle class="st1" cx="466.9" cy="144.1" r="3.4"/>
			<circle class="st1" cx="494.1" cy="144.1" r="3.4"/>
			<circle class="st1" cx="521.4" cy="144.1" r="3.4"/>
			<circle class="st1" cx="548.7" cy="144.1" r="3.4"/>
			<circle class="st1" cx="575.9" cy="144.1" r="3.4"/>
			<circle class="st1" cx="603.2" cy="144.1" r="3.4"/>
			<circle class="st1" cx="630.5" cy="144.1" r="3.4"/>
			<circle class="st1" cx="657.7" cy="144.1" r="3.4"/>
			<circle class="st1" cx="685" cy="144.5" r="3.4"/>
		</g>
		<g class="st0">
			<circle class="st1" cx="357.8" cy="164.1" r="3.4"/>
			<circle class="st1" cx="385.1" cy="164.1" r="3.4"/>
			<circle class="st1" cx="412.4" cy="164.1" r="3.4"/>
			<circle class="st1" cx="439.6" cy="164.1" r="3.4"/>
			<circle class="st1" cx="466.9" cy="164.1" r="3.4"/>
			<circle class="st1" cx="494.1" cy="164.1" r="3.4"/>
			<circle class="st1" cx="521.4" cy="164.1" r="3.4"/>
			<circle class="st1" cx="548.7" cy="164.1" r="3.4"/>
			<circle class="st1" cx="575.9" cy="164.1" r="3.4"/>
			<circle class="st1" cx="603.2" cy="164.1" r="3.4"/>
			<circle class="st1" cx="630.5" cy="164.1" r="3.4"/>
			<circle class="st1" cx="657.7" cy="164.1" r="3.4"/>
			<circle class="st1" cx="685" cy="164.5" r="3.4"/>
		</g>
	</g>
</g>
<title>Asset 20</title>
<g id="Layer_2_2_">
	<g id="patterns-blend_2_">
		<g class="st0">
			<circle class="st1" cx="357.8" cy="191.5" r="3.4"/>
			<circle class="st1" cx="385.1" cy="191.5" r="3.4"/>
			<circle class="st1" cx="412.4" cy="191.5" r="3.4"/>
			<circle class="st1" cx="439.6" cy="191.5" r="3.4"/>
			<circle class="st1" cx="466.9" cy="191.5" r="3.4"/>
			<circle class="st1" cx="494.2" cy="191.5" r="3.4"/>
			<circle class="st1" cx="521.4" cy="191.5" r="3.4"/>
			<circle class="st1" cx="548.7" cy="191.5" r="3.4"/>
			<circle class="st1" cx="575.9" cy="191.5" r="3.4"/>
			<circle class="st1" cx="603.2" cy="191.5" r="3.4"/>
			<circle class="st1" cx="630.5" cy="191.5" r="3.4"/>
			<circle class="st1" cx="657.7" cy="191.5" r="3.4"/>
			<circle class="st1" cx="685" cy="192" r="3.4"/>
		</g>
		<g class="st0">
			<circle class="st1" cx="357.8" cy="211.5" r="3.4"/>
			<circle class="st1" cx="385.1" cy="211.5" r="3.4"/>
			<circle class="st1" cx="412.4" cy="211.5" r="3.4"/>
			<circle class="st1" cx="439.6" cy="211.5" r="3.4"/>
			<circle class="st1" cx="466.9" cy="211.5" r="3.4"/>
			<circle class="st1" cx="494.2" cy="211.5" r="3.4"/>
			<circle class="st1" cx="521.4" cy="211.5" r="3.4"/>
			<circle class="st1" cx="548.7" cy="211.5" r="3.4"/>
			<circle class="st1" cx="575.9" cy="211.5" r="3.4"/>
			<circle class="st1" cx="603.2" cy="211.5" r="3.4"/>
			<circle class="st1" cx="630.5" cy="211.5" r="3.4"/>
			<circle class="st1" cx="657.7" cy="211.5" r="3.4"/>
			<circle class="st1" cx="685" cy="212" r="3.4"/>
		</g>
		<g class="st0">
			<circle class="st1" cx="357.8" cy="231.5" r="3.4"/>
			<circle class="st1" cx="385.1" cy="231.5" r="3.4"/>
			<circle class="st1" cx="412.4" cy="231.5" r="3.4"/>
			<circle class="st1" cx="439.6" cy="231.5" r="3.4"/>
			<circle class="st1" cx="466.9" cy="231.5" r="3.4"/>
			<circle class="st1" cx="494.2" cy="231.5" r="3.4"/>
			<circle class="st1" cx="521.4" cy="231.5" r="3.4"/>
			<circle class="st1" cx="548.7" cy="231.5" r="3.4"/>
			<circle class="st1" cx="575.9" cy="231.5" r="3.4"/>
			<circle class="st1" cx="603.2" cy="231.5" r="3.4"/>
			<circle class="st1" cx="630.5" cy="231.5" r="3.4"/>
			<circle class="st1" cx="657.7" cy="231.5" r="3.4"/>
			<circle class="st1" cx="685" cy="232" r="3.4"/>
		</g>
		<g class="st0">
			<circle class="st1" cx="357.8" cy="251.5" r="3.4"/>
			<circle class="st1" cx="385.1" cy="251.5" r="3.4"/>
			<circle class="st1" cx="412.4" cy="251.5" r="3.4"/>
			<circle class="st1" cx="439.6" cy="251.5" r="3.4"/>
			<circle class="st1" cx="466.9" cy="251.5" r="3.4"/>
			<circle class="st1" cx="494.2" cy="251.5" r="3.4"/>
			<circle class="st1" cx="521.4" cy="251.5" r="3.4"/>
			<circle class="st1" cx="548.7" cy="251.5" r="3.4"/>
			<circle class="st1" cx="575.9" cy="251.5" r="3.4"/>
			<circle class="st1" cx="603.2" cy="251.5" r="3.4"/>
			<circle class="st1" cx="630.5" cy="251.5" r="3.4"/>
			<circle class="st1" cx="657.7" cy="251.5" r="3.4"/>
			<circle class="st1" cx="685" cy="252" r="3.4"/>
		</g>
		<g class="st0">
			<circle class="st1" cx="357.8" cy="271.5" r="3.4"/>
			<circle class="st1" cx="385.1" cy="271.5" r="3.4"/>
			<circle class="st1" cx="412.4" cy="271.5" r="3.4"/>
			<circle class="st1" cx="439.6" cy="271.5" r="3.4"/>
			<circle class="st1" cx="466.9" cy="271.5" r="3.4"/>
			<circle class="st1" cx="494.2" cy="271.5" r="3.4"/>
			<circle class="st1" cx="521.4" cy="271.5" r="3.4"/>
			<circle class="st1" cx="548.7" cy="271.5" r="3.4"/>
			<circle class="st1" cx="575.9" cy="271.5" r="3.4"/>
			<circle class="st1" cx="603.2" cy="271.5" r="3.4"/>
			<circle class="st1" cx="630.5" cy="271.5" r="3.4"/>
			<circle class="st1" cx="657.7" cy="271.5" r="3.4"/>
			<circle class="st1" cx="685" cy="272" r="3.4"/>
		</g>
		<g class="st0">
			<circle class="st1" cx="357.8" cy="291.5" r="3.4"/>
			<circle class="st1" cx="385.1" cy="291.5" r="3.4"/>
			<circle class="st1" cx="412.4" cy="291.5" r="3.4"/>
			<circle class="st1" cx="439.6" cy="291.5" r="3.4"/>
			<circle class="st1" cx="466.9" cy="291.5" r="3.4"/>
			<circle class="st1" cx="494.2" cy="291.5" r="3.4"/>
			<circle class="st1" cx="521.4" cy="291.5" r="3.4"/>
			<circle class="st1" cx="548.7" cy="291.5" r="3.4"/>
			<circle class="st1" cx="575.9" cy="291.5" r="3.4"/>
			<circle class="st1" cx="603.2" cy="291.5" r="3.4"/>
			<circle class="st1" cx="630.5" cy="291.5" r="3.4"/>
			<circle class="st1" cx="657.7" cy="291.5" r="3.4"/>
			<circle class="st1" cx="685" cy="292" r="3.4"/>
		</g>
		<g class="st0">
			<circle class="st1" cx="357.8" cy="311.5" r="3.4"/>
			<circle class="st1" cx="385.1" cy="311.5" r="3.4"/>
			<circle class="st1" cx="412.4" cy="311.5" r="3.4"/>
			<circle class="st1" cx="439.6" cy="311.5" r="3.4"/>
			<circle class="st1" cx="466.9" cy="311.5" r="3.4"/>
			<circle class="st1" cx="494.2" cy="311.5" r="3.4"/>
			<circle class="st1" cx="521.4" cy="311.5" r="3.4"/>
			<circle class="st1" cx="548.7" cy="311.5" r="3.4"/>
			<circle class="st1" cx="575.9" cy="311.5" r="3.4"/>
			<circle class="st1" cx="603.2" cy="311.5" r="3.4"/>
			<circle class="st1" cx="630.5" cy="311.5" r="3.4"/>
			<circle class="st1" cx="657.7" cy="311.5" r="3.4"/>
			<circle class="st1" cx="685" cy="312" r="3.4"/>
		</g>
		<g class="st0">
			<circle class="st1" cx="357.8" cy="331.5" r="3.4"/>
			<circle class="st1" cx="385.1" cy="331.5" r="3.4"/>
			<circle class="st1" cx="412.4" cy="331.5" r="3.4"/>
			<circle class="st1" cx="439.6" cy="331.5" r="3.4"/>
			<circle class="st1" cx="466.9" cy="331.5" r="3.4"/>
			<circle class="st1" cx="494.2" cy="331.5" r="3.4"/>
			<circle class="st1" cx="521.4" cy="331.5" r="3.4"/>
			<circle class="st1" cx="548.7" cy="331.5" r="3.4"/>
			<circle class="st1" cx="575.9" cy="331.5" r="3.4"/>
			<circle class="st1" cx="603.2" cy="331.5" r="3.4"/>
			<circle class="st1" cx="630.5" cy="331.5" r="3.4"/>
			<circle class="st1" cx="657.7" cy="331.5" r="3.4"/>
			<circle class="st1" cx="685" cy="332" r="3.4"/>
		</g>
		<g class="st0">
			<circle class="st1" cx="357.8" cy="351.5" r="3.4"/>
			<circle class="st1" cx="385.1" cy="351.5" r="3.4"/>
			<circle class="st1" cx="412.4" cy="351.5" r="3.4"/>
			<circle class="st1" cx="439.6" cy="351.5" r="3.4"/>
			<circle class="st1" cx="466.9" cy="351.5" r="3.4"/>
			<circle class="st1" cx="494.2" cy="351.5" r="3.4"/>
			<circle class="st1" cx="521.4" cy="351.5" r="3.4"/>
			<circle class="st1" cx="548.7" cy="351.5" r="3.4"/>
			<circle class="st1" cx="575.9" cy="351.5" r="3.4"/>
			<circle class="st1" cx="603.2" cy="351.5" r="3.4"/>
			<circle class="st1" cx="630.5" cy="351.5" r="3.4"/>
			<circle class="st1" cx="657.7" cy="351.5" r="3.4"/>
			<circle class="st1" cx="685" cy="352" r="3.4"/>
		</g>
	</g>
</g>
<title>Asset 20</title>
<g id="Layer_2_3_">
	<g id="patterns-blend_3_">
		<g class="st0">
			<circle class="st1" cx="3.4" cy="191.3" r="3.4"/>
			<circle class="st1" cx="30.7" cy="191.3" r="3.4"/>
			<circle class="st1" cx="57.9" cy="191.3" r="3.4"/>
			<circle class="st1" cx="85.2" cy="191.3" r="3.4"/>
			<circle class="st1" cx="112.5" cy="191.3" r="3.4"/>
			<circle class="st1" cx="139.7" cy="191.3" r="3.4"/>
			<circle class="st1" cx="167" cy="191.3" r="3.4"/>
			<circle class="st1" cx="194.2" cy="191.3" r="3.4"/>
			<circle class="st1" cx="221.5" cy="191.3" r="3.4"/>
			<circle class="st1" cx="248.8" cy="191.3" r="3.4"/>
			<circle class="st1" cx="276" cy="191.3" r="3.4"/>
			<circle class="st1" cx="303.3" cy="191.3" r="3.4"/>
			<circle class="st1" cx="330.6" cy="191.8" r="3.4"/>
		</g>
		<g class="st0">
			<circle class="st1" cx="3.4" cy="211.3" r="3.4"/>
			<circle class="st1" cx="30.7" cy="211.3" r="3.4"/>
			<circle class="st1" cx="57.9" cy="211.3" r="3.4"/>
			<circle class="st1" cx="85.2" cy="211.3" r="3.4"/>
			<circle class="st1" cx="112.5" cy="211.3" r="3.4"/>
			<circle class="st1" cx="139.7" cy="211.3" r="3.4"/>
			<circle class="st1" cx="167" cy="211.3" r="3.4"/>
			<circle class="st1" cx="194.2" cy="211.3" r="3.4"/>
			<circle class="st1" cx="221.5" cy="211.3" r="3.4"/>
			<circle class="st1" cx="248.8" cy="211.3" r="3.4"/>
			<circle class="st1" cx="276" cy="211.3" r="3.4"/>
			<circle class="st1" cx="303.3" cy="211.3" r="3.4"/>
			<circle class="st1" cx="330.6" cy="211.8" r="3.4"/>
		</g>
		<g class="st0">
			<circle class="st1" cx="3.4" cy="231.3" r="3.4"/>
			<circle class="st1" cx="30.7" cy="231.3" r="3.4"/>
			<circle class="st1" cx="57.9" cy="231.3" r="3.4"/>
			<circle class="st1" cx="85.2" cy="231.3" r="3.4"/>
			<circle class="st1" cx="112.5" cy="231.3" r="3.4"/>
			<circle class="st1" cx="139.7" cy="231.3" r="3.4"/>
			<circle class="st1" cx="167" cy="231.3" r="3.4"/>
			<circle class="st1" cx="194.2" cy="231.3" r="3.4"/>
			<circle class="st1" cx="221.5" cy="231.3" r="3.4"/>
			<circle class="st1" cx="248.8" cy="231.3" r="3.4"/>
			<circle class="st1" cx="276" cy="231.3" r="3.4"/>
			<circle class="st1" cx="303.3" cy="231.3" r="3.4"/>
			<circle class="st1" cx="330.6" cy="231.8" r="3.4"/>
		</g>
		<g class="st0">
			<circle class="st1" cx="3.4" cy="251.3" r="3.4"/>
			<circle class="st1" cx="30.7" cy="251.3" r="3.4"/>
			<circle class="st1" cx="57.9" cy="251.3" r="3.4"/>
			<circle class="st1" cx="85.2" cy="251.3" r="3.4"/>
			<circle class="st1" cx="112.5" cy="251.3" r="3.4"/>
			<circle class="st1" cx="139.7" cy="251.3" r="3.4"/>
			<circle class="st1" cx="167" cy="251.3" r="3.4"/>
			<circle class="st1" cx="194.2" cy="251.3" r="3.4"/>
			<circle class="st1" cx="221.5" cy="251.3" r="3.4"/>
			<circle class="st1" cx="248.8" cy="251.3" r="3.4"/>
			<circle class="st1" cx="276" cy="251.3" r="3.4"/>
			<circle class="st1" cx="303.3" cy="251.3" r="3.4"/>
			<circle class="st1" cx="330.6" cy="251.8" r="3.4"/>
		</g>
		<g class="st0">
			<circle class="st1" cx="3.4" cy="271.3" r="3.4"/>
			<circle class="st1" cx="30.7" cy="271.3" r="3.4"/>
			<circle class="st1" cx="57.9" cy="271.3" r="3.4"/>
			<circle class="st1" cx="85.2" cy="271.3" r="3.4"/>
			<circle class="st1" cx="112.5" cy="271.3" r="3.4"/>
			<circle class="st1" cx="139.7" cy="271.3" r="3.4"/>
			<circle class="st1" cx="167" cy="271.3" r="3.4"/>
			<circle class="st1" cx="194.2" cy="271.3" r="3.4"/>
			<circle class="st1" cx="221.5" cy="271.3" r="3.4"/>
			<circle class="st1" cx="248.8" cy="271.3" r="3.4"/>
			<circle class="st1" cx="276" cy="271.3" r="3.4"/>
			<circle class="st1" cx="303.3" cy="271.3" r="3.4"/>
			<circle class="st1" cx="330.6" cy="271.8" r="3.4"/>
		</g>
		<g class="st0">
			<circle class="st1" cx="3.4" cy="291.3" r="3.4"/>
			<circle class="st1" cx="30.7" cy="291.3" r="3.4"/>
			<circle class="st1" cx="57.9" cy="291.3" r="3.4"/>
			<circle class="st1" cx="85.2" cy="291.3" r="3.4"/>
			<circle class="st1" cx="112.5" cy="291.3" r="3.4"/>
			<circle class="st1" cx="139.7" cy="291.3" r="3.4"/>
			<circle class="st1" cx="167" cy="291.3" r="3.4"/>
			<circle class="st1" cx="194.2" cy="291.3" r="3.4"/>
			<circle class="st1" cx="221.5" cy="291.3" r="3.4"/>
			<circle class="st1" cx="248.8" cy="291.3" r="3.4"/>
			<circle class="st1" cx="276" cy="291.3" r="3.4"/>
			<circle class="st1" cx="303.3" cy="291.3" r="3.4"/>
			<circle class="st1" cx="330.6" cy="291.8" r="3.4"/>
		</g>
		<g class="st0">
			<circle class="st1" cx="3.4" cy="311.3" r="3.4"/>
			<circle class="st1" cx="30.7" cy="311.3" r="3.4"/>
			<circle class="st1" cx="57.9" cy="311.3" r="3.4"/>
			<circle class="st1" cx="85.2" cy="311.3" r="3.4"/>
			<circle class="st1" cx="112.5" cy="311.3" r="3.4"/>
			<circle class="st1" cx="139.7" cy="311.3" r="3.4"/>
			<circle class="st1" cx="167" cy="311.3" r="3.4"/>
			<circle class="st1" cx="194.2" cy="311.3" r="3.4"/>
			<circle class="st1" cx="221.5" cy="311.3" r="3.4"/>
			<circle class="st1" cx="248.8" cy="311.3" r="3.4"/>
			<circle class="st1" cx="276" cy="311.3" r="3.4"/>
			<circle class="st1" cx="303.3" cy="311.3" r="3.4"/>
			<circle class="st1" cx="330.6" cy="311.8" r="3.4"/>
		</g>
		<g class="st0">
			<circle class="st1" cx="3.4" cy="331.3" r="3.4"/>
			<circle class="st1" cx="30.7" cy="331.3" r="3.4"/>
			<circle class="st1" cx="57.9" cy="331.3" r="3.4"/>
			<circle class="st1" cx="85.2" cy="331.3" r="3.4"/>
			<circle class="st1" cx="112.5" cy="331.3" r="3.4"/>
			<circle class="st1" cx="139.7" cy="331.3" r="3.4"/>
			<circle class="st1" cx="167" cy="331.3" r="3.4"/>
			<circle class="st1" cx="194.2" cy="331.3" r="3.4"/>
			<circle class="st1" cx="221.5" cy="331.3" r="3.4"/>
			<circle class="st1" cx="248.8" cy="331.3" r="3.4"/>
			<circle class="st1" cx="276" cy="331.3" r="3.4"/>
			<circle class="st1" cx="303.3" cy="331.3" r="3.4"/>
			<circle class="st1" cx="330.6" cy="331.8" r="3.4"/>
		</g>
		<g class="st0">
			<circle class="st1" cx="3.4" cy="351.3" r="3.4"/>
			<circle class="st1" cx="30.7" cy="351.3" r="3.4"/>
			<circle class="st1" cx="57.9" cy="351.3" r="3.4"/>
			<circle class="st1" cx="85.2" cy="351.3" r="3.4"/>
			<circle class="st1" cx="112.5" cy="351.3" r="3.4"/>
			<circle class="st1" cx="139.7" cy="351.3" r="3.4"/>
			<circle class="st1" cx="167" cy="351.3" r="3.4"/>
			<circle class="st1" cx="194.2" cy="351.3" r="3.4"/>
			<circle class="st1" cx="221.5" cy="351.3" r="3.4"/>
			<circle class="st1" cx="248.8" cy="351.3" r="3.4"/>
			<circle class="st1" cx="276" cy="351.3" r="3.4"/>
			<circle class="st1" cx="303.3" cy="351.3" r="3.4"/>
			<circle class="st1" cx="330.6" cy="351.8" r="3.4"/>
		</g>
	</g>
</g>
</svg>
