<?xml version="1.0" encoding="utf-8"?>
<!-- Generator: Adobe Illustrator 21.0.0, SVG Export Plug-In . SVG Version: 6.00 Build 0)  -->
<svg version="1.1" id="Layer_1" xmlns="http://www.w3.org/2000/svg" xmlns:xlink="http://www.w3.org/1999/xlink" x="0px" y="0px"
	 viewBox="0 0 333.1 560.6" style="enable-background:new 0 0 333.1 560.6;" xml:space="preserve">
<style type="text/css">
	.st0{fill:none;}
	.st1{fill:none;stroke:#FFE031;stroke-width:1.44;}
	.st2{fill:none;stroke:#009187;stroke-miterlimit:10;}
	.st3{fill:#009187;}
	.st4{fill:url(#SVGID_2_);}
	.st5{fill:#FFE031;}
	.st6{fill:url(#SVGID_3_);}
	.st7{fill:none;stroke:#000000;stroke-linecap:round;stroke-linejoin:round;stroke-miterlimit:10;}
	.st8{fill:none;stroke:#FFFFFF;stroke-linecap:round;stroke-linejoin:round;stroke-miterlimit:10;}
	.st9{fill:none;stroke:#009187;stroke-linecap:round;stroke-linejoin:round;stroke-miterlimit:10;}
</style>
<pattern  y="560.6" width="72" height="72" patternUnits="userSpaceOnUse" id="SVGID_1_" viewBox="72.2 -72 72 72" style="overflow:visible;">
	<g>
		<rect x="72.2" y="-72" class="st0" width="72" height="72"/>
		<g>
			<rect x="72.2" y="-72" class="st0" width="72" height="72"/>
			<g>
				<rect x="72.2" y="-72" class="st0" width="72" height="72"/>
				<g>
					<rect x="72.2" y="-72" class="st0" width="72" height="72"/>
					<rect x="72.2" y="-72" class="st0" width="72" height="72"/>
					<line class="st1" x1="144" y1="-3.6" x2="216.5" y2="-3.6"/>
					<line class="st1" x1="144" y1="-18" x2="216.5" y2="-18"/>
					<line class="st1" x1="144" y1="-32.4" x2="216.5" y2="-32.4"/>
					<line class="st1" x1="144" y1="-46.8" x2="216.5" y2="-46.8"/>
					<line class="st1" x1="144" y1="-61.2" x2="216.5" y2="-61.2"/>
					<line class="st1" x1="144" y1="-10.8" x2="216.5" y2="-10.8"/>
					<line class="st1" x1="144" y1="-25.2" x2="216.5" y2="-25.2"/>
					<line class="st1" x1="144" y1="-39.6" x2="216.5" y2="-39.6"/>
					<line class="st1" x1="144" y1="-54" x2="216.5" y2="-54"/>
					<line class="st1" x1="144" y1="-68.4" x2="216.5" y2="-68.4"/>
					<line class="st1" x1="72" y1="-3.6" x2="144.5" y2="-3.6"/>
					<line class="st1" x1="72" y1="-18" x2="144.5" y2="-18"/>
					<line class="st1" x1="72" y1="-32.4" x2="144.5" y2="-32.4"/>
					<line class="st1" x1="72" y1="-46.8" x2="144.5" y2="-46.8"/>
					<line class="st1" x1="72" y1="-61.2" x2="144.5" y2="-61.2"/>
					<line class="st1" x1="72" y1="-10.8" x2="144.5" y2="-10.8"/>
					<line class="st1" x1="72" y1="-25.2" x2="144.5" y2="-25.2"/>
					<line class="st1" x1="72" y1="-39.6" x2="144.5" y2="-39.6"/>
					<line class="st1" x1="72" y1="-54" x2="144.5" y2="-54"/>
					<line class="st1" x1="72" y1="-68.4" x2="144.5" y2="-68.4"/>
					<line class="st1" x1="0" y1="-3.6" x2="72.5" y2="-3.6"/>
					<line class="st1" x1="0" y1="-18" x2="72.5" y2="-18"/>
					<line class="st1" x1="0" y1="-32.4" x2="72.5" y2="-32.4"/>
					<line class="st1" x1="0" y1="-46.8" x2="72.5" y2="-46.8"/>
					<line class="st1" x1="0" y1="-61.2" x2="72.5" y2="-61.2"/>
					<line class="st1" x1="0" y1="-10.8" x2="72.5" y2="-10.8"/>
					<line class="st1" x1="0" y1="-25.2" x2="72.5" y2="-25.2"/>
					<line class="st1" x1="0" y1="-39.6" x2="72.5" y2="-39.6"/>
					<line class="st1" x1="0" y1="-54" x2="72.5" y2="-54"/>
					<line class="st1" x1="0" y1="-68.4" x2="72.5" y2="-68.4"/>
				</g>
			</g>
		</g>
	</g>
</pattern>
<pattern  y="560.6" width="49.3" height="37.7" patternUnits="userSpaceOnUse" id="SVGID_3" viewBox="0 -37.7 49.3 37.7" style="overflow:visible;">
	<g>
		<rect y="-37.7" class="st0" width="49.3" height="37.7"/>
		<g>
			<rect y="-37.7" class="st0" width="49.3" height="37.7"/>
			<g>
				<rect y="-37.7" class="st0" width="49.3" height="37.7"/>
				<line class="st2" x1="0" y1="-0.5" x2="49.3" y2="-0.5"/>
				<line class="st2" x1="0" y1="-5.7" x2="49.3" y2="-5.7"/>
				<line class="st2" x1="0" y1="-11" x2="49.3" y2="-11"/>
				<line class="st2" x1="0" y1="-16.2" x2="49.3" y2="-16.2"/>
				<line class="st2" x1="0" y1="-21.5" x2="49.3" y2="-21.5"/>
				<line class="st2" x1="0" y1="-26.7" x2="49.3" y2="-26.7"/>
				<line class="st2" x1="0" y1="-32" x2="49.3" y2="-32"/>
			</g>
		</g>
	</g>
</pattern>
<g id="Layer_2">
	<g id="person">
		<ellipse class="st3" cx="273.5" cy="78.1" rx="10.4" ry="10"/>
		<path class="st3" d="M168.3,115.8c18.8,13.5,39.6,24.5,55.9,41c14.3,14.4,24.5,32.5,39.4,46.3s37.2,22.9,55.5,14.2
			c4.7-2.3,9-5.7,11.4-10.4s2.6-9.8,2.6-14.9c0.1-21.1-4.9-42.9-17.9-59.5c-16.4-20.8-43.6-31.2-59.6-52.4
			C237,55.4,233.9,17.2,206,4.1c-12.7-5.9-27.6-4.7-41.3-1.6c-20.2,4.6-66.6,16.6-61.9,43.1C107.2,70.8,149.2,102,168.3,115.8z"/>
		
			<pattern  id="SVGID_2_" xlink:href="#SVGID_1_" patternTransform="matrix(1.31 9.000000e-02 -9.000000e-02 1.31 9640.873 43870.0781)">
		</pattern>
		<polygon class="st4" points="253.2,354.6 194,543.9 22.1,428.6 		"/>
		
			<rect x="146" y="173.2" transform="matrix(0.919 -0.3943 0.3943 0.919 -57.3088 81.1024)" class="st5" width="45.4" height="13.6"/>
		<pattern  id="SVGID_3_" xlink:href="#SVGID_3" patternTransform="matrix(1 0 0 -1 28.3 -16588.0996)">
		</pattern>
		<polygon class="st6" points="182.4,343 107.9,366.8 99,339 173.5,315.1 		"/>
		<g id="hair">
			<path class="st7" d="M42.1,182.7c1.3,9.2-5.4,17.7-12.9,23.3S13,215.8,7.1,223c-9.1,11.2-8.8,29,0.6,39.9"/>
			<path class="st7" d="M23.7,234.2c-3.4,5.8-6.8,12-6.4,18.7c0.6,9.8,9.5,18.1,8.8,27.9c-0.1,1.9-0.7,3.7-1.8,5.2
				c-1.1,1.5-3,2.3-4.9,2.1"/>
			<path class="st7" d="M38.9,264.4c-1.3,5.3-1,10.8,0.9,15.9c0.7,1.5,1.2,3,1.5,4.6c0.3,3.5-1.8,6.7-5.1,7.8"/>
			<path class="st7" d="M50.2,285.5c-0.6,2.3-1.5,4.4-2.7,6.4c-1.3,2-3.3,3.3-5.7,3.6"/>
			<path class="st7" d="M109.7,59.2C68.2,58.5,34,91.4,33.3,132.8c-0.2,11.4,2.2,22.8,7,33.2"/>
			<path class="st7" d="M53.6,117.8c-3.8,4-5.3,9.7-5.2,15.1s1.7,10.8,3.4,16c1.6,4.7,3.3,9.6,2.6,14.6c-0.1,1.6-0.8,3.1-2.1,4.2"/>
			<path class="st7" d="M69.2,127.2c0.1,2.5-1.3,4.7-2.2,7c-2.1,5.6-1.5,11.9,0.6,17.4c1.2,3.4,3,7,2.1,10.5"/>
			<path class="st7" d="M89.1,144.6c-6.2,7-6.6,17.6-4.3,26.6s6.9,17.4,9.9,26.2s4.1,19.1-0.4,27.3c-3,5.5-8.3,9.5-10.8,15.2
				c-3.3,7.6-1.2,16.4,1.8,24s7,15.2,7.3,23.5s-4.5,17.5-12.7,18.7"/>
			<path class="st7" d="M109.4,255.9c-5.3,10.6-6.5,22.8-3.2,34.2c1.4,5,3.7,9.8,3.8,15s-2.8,11-7.9,11.9"/>
			<path class="st7" d="M135.8,228.5c-3.9,6.2-5.8,13.5-5.5,20.9c0.4,7.6,3.2,15,3.9,22.6s-1.3,16.4-7.9,20.2"/>
			<path class="st7" d="M145.6,264.1c1.2,4.4,2.3,8.9,2.2,13.4c-0.1,4.4-1.2,8.7-3.3,12.6"/>
			<path class="st7" d="M152,157.9c-1.8,20.6,1.4,41.5,7.9,61.2c4.3,13.2,10.1,26.2,10.8,40.1s-5,29.3-17.8,34.9"/>
			<path class="st7" d="M179.6,249c5.5,10.1,7,21.8,4.1,32.9"/>
			<path class="st7" d="M168.8,161.1c-1.6,16.9,6,33.3,14.3,48.1s17.5,29.8,19.7,46.7c1.5,11.9-0.6,24-6.1,34.6"/>
			<path class="st7" d="M212.3,233.5c-0.7,6.4,1.9,12.6,5.3,18.1c3.4,5.4,7.6,10.3,10.7,15.9s5.1,12.2,3.5,18.4"/>
			<path class="st7" d="M220.2,222.7c3.4,8.6,11.1,14.7,16.6,22.2c6.3,8.8,9.4,20.9,4.5,30.6"/>
			<path class="st7" d="M261.5,235.1c9.1,14.1,10.1,31.9,2.7,46.9c-0.4,0.7-0.9,1.5-1.6,1.4"/>
			<path class="st7" d="M281.2,224.2c6.2,13,6.9,28,1.8,41.5"/>
			<path class="st8" d="M136.6,18.7c-13.6,8.6-19,25.6-12.9,40.5"/>
			<path class="st8" d="M130.2,45.4c4.5-6.5,12-10.3,19.9-10"/>
			<path class="st7" d="M270.8,158.5c9,17.4,22.8,32.1,31.6,49.6s11.5,40.6-1.3,55.5"/>
			<path class="st8" d="M143.7,56.6c35.6-12.7,79,2.3,99.2,34.2"/>
			<path class="st7" d="M242.9,90.8c13.1,20.7,16.6,46,27.8,67.7"/>
		</g>
		<path id="face" class="st9" d="M49.3,173.1c2.5,18.6-3.1,31.5-13.6,41.1c-1.5,1.3-2.3,3.2-2.1,5.1c0.9,8.1,17.6,6,16.6,15.7
			c-0.2,1.8-1,3.5-2.1,4.9l-2,2.5c-1.6,2.1-1.6,4.9,0,7l3.1,2.6c1,0.9,1.3,2.3,0.8,3.5l-0.6,1.3c0,1.5,0.7,3,1.9,3.9
			c2.7,1.7,4.3,4.8,4.2,8c-1.3,4.7-2.3,8.3-3,11.1c-1.4,5.5,1.9,11,7.3,12.4c0.5,0.1,1.1,0.2,1.7,0.3c16.7,1.1,29.9-15.9,44,3
			c57.9,114.5-69.8,178.4-86.4,265"/>
		<path class="st9" d="M149.8,323.3c4.7,53.9,46.6,96.5,66.2,146.9c5.7,14.6,9.5,29.8,11.3,45.3"/>
	</g>
</g>
</svg>
