<?xml version="1.0" encoding="utf-8"?>
<!-- Generator: Adobe Illustrator 21.0.0, SVG Export Plug-In . SVG Version: 6.00 Build 0)  -->
<svg version="1.1" id="Layer_1" xmlns="http://www.w3.org/2000/svg" xmlns:xlink="http://www.w3.org/1999/xlink" x="0px" y="0px"
	 viewBox="0 0 1169.6 516.2" style="enable-background:new 0 0 1169.6 516.2;" xml:space="preserve">
<style type="text/css">
	.st0{fill:none;}
	.st1{fill:none;stroke:#FFE031;stroke-width:1.44;}
	.st2{fill:url(#SVGID_2_);}
	.st3{fill:none;stroke:#009187;stroke-width:2;stroke-linecap:round;stroke-linejoin:round;}
	.st4{fill:none;stroke:#009187;stroke-width:2;stroke-miterlimit:10;}
	.st5{fill:#009187;}
	.st6{fill:#FFE031;}
	.st7{fill:#FFFFFF;stroke:#009187;stroke-width:2;stroke-linecap:round;stroke-linejoin:round;}
	.st8{fill:#FFE031;stroke:#009187;stroke-width:2;stroke-linecap:round;stroke-linejoin:round;}
	.st9{fill:#FFFFFF;}
	.st10{fill:#FFE031;stroke:#009187;stroke-width:2;stroke-miterlimit:10;}
</style>
<pattern  y="516.2" width="72" height="72" patternUnits="userSpaceOnUse" id="SVGID_1_" viewBox="72.2 -72 72 72" style="overflow:visible;">
	<g>
		<rect x="72.2" y="-72" class="st0" width="72" height="72"/>
		<g>
			<rect x="72.2" y="-72" class="st0" width="72" height="72"/>
			<rect x="72.2" y="-72" class="st0" width="72" height="72"/>
			<line class="st1" x1="144" y1="-3.6" x2="216.5" y2="-3.6"/>
			<line class="st1" x1="144" y1="-18" x2="216.5" y2="-18"/>
			<line class="st1" x1="144" y1="-32.4" x2="216.5" y2="-32.4"/>
			<line class="st1" x1="144" y1="-46.8" x2="216.5" y2="-46.8"/>
			<line class="st1" x1="144" y1="-61.2" x2="216.5" y2="-61.2"/>
			<line class="st1" x1="144" y1="-10.8" x2="216.5" y2="-10.8"/>
			<line class="st1" x1="144" y1="-25.2" x2="216.5" y2="-25.2"/>
			<line class="st1" x1="144" y1="-39.6" x2="216.5" y2="-39.6"/>
			<line class="st1" x1="144" y1="-54" x2="216.5" y2="-54"/>
			<line class="st1" x1="144" y1="-68.4" x2="216.5" y2="-68.4"/>
			<line class="st1" x1="72" y1="-3.6" x2="144.5" y2="-3.6"/>
			<line class="st1" x1="72" y1="-18" x2="144.5" y2="-18"/>
			<line class="st1" x1="72" y1="-32.4" x2="144.5" y2="-32.4"/>
			<line class="st1" x1="72" y1="-46.8" x2="144.5" y2="-46.8"/>
			<line class="st1" x1="72" y1="-61.2" x2="144.5" y2="-61.2"/>
			<line class="st1" x1="72" y1="-10.8" x2="144.5" y2="-10.8"/>
			<line class="st1" x1="72" y1="-25.2" x2="144.5" y2="-25.2"/>
			<line class="st1" x1="72" y1="-39.6" x2="144.5" y2="-39.6"/>
			<line class="st1" x1="72" y1="-54" x2="144.5" y2="-54"/>
			<line class="st1" x1="72" y1="-68.4" x2="144.5" y2="-68.4"/>
			<line class="st1" x1="0" y1="-3.6" x2="72.5" y2="-3.6"/>
			<line class="st1" x1="0" y1="-18" x2="72.5" y2="-18"/>
			<line class="st1" x1="0" y1="-32.4" x2="72.5" y2="-32.4"/>
			<line class="st1" x1="0" y1="-46.8" x2="72.5" y2="-46.8"/>
			<line class="st1" x1="0" y1="-61.2" x2="72.5" y2="-61.2"/>
			<line class="st1" x1="0" y1="-10.8" x2="72.5" y2="-10.8"/>
			<line class="st1" x1="0" y1="-25.2" x2="72.5" y2="-25.2"/>
			<line class="st1" x1="0" y1="-39.6" x2="72.5" y2="-39.6"/>
			<line class="st1" x1="0" y1="-54" x2="72.5" y2="-54"/>
			<line class="st1" x1="0" y1="-68.4" x2="72.5" y2="-68.4"/>
		</g>
	</g>
</pattern>
<g id="patterns-blend">
	<pattern  id="SVGID_2_" xlink:href="#SVGID_1_" patternTransform="matrix(0.5217 -1.2669 1.2669 0.5217 -7181.3594 9174.1885)">
	</pattern>
	<circle class="st2" cx="1076.6" cy="112.6" r="41.8"/>
	<path id="_Rectangle_" class="st3" d="M522.7,302.7h371.8l0,0v12.8c0,8-6.5,14.5-14.5,14.5l0,0H537.2c-8,0-14.5-6.5-14.5-14.5l0,0
		V302.7L522.7,302.7z"/>
	<rect id="_Rectangle_2" x="669.3" y="302.7" class="st3" width="78.6" height="13.7"/>
	<path id="_Rectangle_3" class="st3" d="M566.9,127.7h283.5c5.6,0,10.2,4.6,10.2,10.2l0,0v164.8l0,0H556.7l0,0V137.9
		C556.7,132.2,561.3,127.7,566.9,127.7z"/>
	<g id="_Group_">
		<rect id="_Path_" x="572.3" y="143.3" class="st4" width="272.6" height="143.7"/>
		<rect id="_Path_2" x="572.3" y="143.3" class="st4" width="272.6" height="143.7"/>
	</g>
	<path class="st5" d="M759.2,166.9h-95.7c-4.7,0-8.5,3.5-8.5,7.8v73c0.1,3,2.7,5.4,5.7,5.3H762c3,0.1,5.6-2.2,5.7-5.3v-73
		C767.7,170.4,763.9,166.9,759.2,166.9z M656.7,174.7c0.2-3.6,3.2-6.4,6.9-6.3h95.7c3.6-0.1,6.7,2.7,6.9,6.3v4.4H656.7V174.7z
		 M766.1,247.7c-0.1,2.2-1.9,3.8-4.1,3.8H660.8c-2.2,0.1-4-1.6-4.1-3.8v-67.1h109.4L766.1,247.7L766.1,247.7z"/>
	<g id="_Group_2">
		<g id="_Group_3">
			<g id="_Group_4">
				<path class="st5" d="M706.3,225.9c-2.7,0.1-5-2-5.1-4.7v-4.6l-4.2-1.8c-0.4-0.1-0.6-0.6-0.4-0.9c0.1-0.2,0.2-0.4,0.4-0.4
					l4.2-1.8v-4.6c0.1-2.7,2.4-4.8,5.1-4.7c0.4,0,0.8,0.2,0.8,0.7s-0.2,0.8-0.7,0.8c-0.1,0-0.1,0-0.2,0c-1.9-0.1-3.4,1.4-3.5,3.2
					v5.1c0,0.3-0.2,0.6-0.5,0.7l-3,1.3l3,1.3c0.3,0.1,0.5,0.4,0.5,0.7v5.1c0.1,1.8,1.6,3.3,3.5,3.2c0.4,0,0.8,0.2,0.8,0.7
					s-0.2,0.8-0.7,0.8C706.4,225.9,706.3,225.9,706.3,225.9z"/>
			</g>
			<g id="_Group_5">
				<path class="st5" d="M716.3,225.9c-0.4,0-0.8-0.2-0.8-0.7s0.2-0.8,0.7-0.8c0.1,0,0.1,0,0.2,0c1.9,0.1,3.4-1.4,3.5-3.2v-5.1
					c0-0.3,0.2-0.6,0.5-0.7l3-1.3l-3-1.3c-0.3-0.1-0.5-0.4-0.5-0.7V207c-0.1-1.8-1.6-3.3-3.5-3.2c-0.4,0-0.8-0.2-0.8-0.7
					s0.2-0.8,0.7-0.8c0.1,0,0.1,0,0.2,0c2.7-0.1,5,2,5.1,4.7v4.6l4.2,1.8c0.4,0.1,0.6,0.6,0.4,0.9c-0.1,0.2-0.2,0.4-0.4,0.4
					l-4.2,1.8v4.6C721.3,223.9,719,226,716.3,225.9z"/>
			</g>
		</g>
		<g id="_Group_6">
			<path class="st5" d="M694.5,225.9h-15.3c-0.4,0-0.8-0.2-0.8-0.7s0.2-0.8,0.7-0.8c0.1,0,0.1,0,0.2,0h15.3c0.4,0,0.8,0.2,0.8,0.7
				s-0.2,0.8-0.7,0.8C694.6,225.9,694.6,225.9,694.5,225.9z"/>
		</g>
		<g id="_Group_7">
			<path class="st5" d="M727.8,225.9c-0.2,0-0.3,0-0.4-0.1c-0.3-0.2-0.5-0.6-0.3-1l0,0l15.8-22.2c0.3-0.4,0.8-0.4,1.1-0.2
				s0.5,0.6,0.3,1l0,0l-15.7,22.1C728.4,225.8,728.1,225.9,727.8,225.9z"/>
		</g>
	</g>
	<circle id="_Path_3" class="st5" cx="708.6" cy="135.5" r="2.7"/>
	<line id="_Path_4" class="st3" x1="352.8" y1="330" x2="977" y2="330"/>
	<line id="_Path_5" class="st3" x1="992.7" y1="330" x2="1034" y2="330"/>
	<line id="_Path_6" class="st3" x1="1080.5" y1="330" x2="1121.8" y2="330"/>
	<g id="_Group_8">
		<path id="_Path_7" class="st3" d="M521.4,20.2c-19.8-4.8-39.8,7.2-45.1,26.9c-12.5-5-26.7,1.2-31.7,13.7s1.2,26.7,13.7,31.7
			c2.9,1.1,5.9,1.7,9,1.7h20"/>
		<path id="_Path_8" class="st3" d="M544.5,36.8c-3.6-5.9-8.8-10.6-15-13.7"/>
		<path id="_Path_9" class="st3" d="M570.9,57.7C565,53,557,52,550.1,55c-0.2-4-1-7.9-2.4-11.6"/>
		<path id="_Path_10" class="st3" d="M512.4,94.2h45.8c11.3,0,20.4-9.1,20.4-20.4"/>
		<line id="_Path_11" class="st3" x1="494.2" y1="94.2" x2="505.6" y2="94.2"/>
	</g>
	<path id="_Rectangle_4" class="st3" d="M510.8,166.1v98.2c0,7.2-5.8,13-13,13H339.3c-7.2,0-13-5.8-13-13v-98.2c0-7.2,5.8-13,13-13
		h158.5C505,153.1,510.8,158.9,510.8,166.1z"/>
	<rect id="_Rectangle_5" x="351.1" y="161.7" class="st3" width="134.9" height="106.9"/>
	<circle id="_Path_12" class="st3" cx="339.7" cy="215.2" r="5.7"/>
	<circle id="_Path_13" class="st3" cx="498" cy="212.8" r="3.1"/>
	<circle id="_Path_14" class="st3" cx="498" cy="225.3" r="1.8"/>
	<circle id="_Path_15" class="st3" cx="498" cy="232.9" r="1.8"/>
	<g id="_Group_9">
		<line id="_Path_16" class="st3" x1="440.4" y1="207.6" x2="425.2" y2="222.8"/>
		<line id="_Path_17" class="st3" x1="411.9" y1="207.6" x2="396.6" y2="222.8"/>
		<line id="_Path_18" class="st3" x1="432.2" y1="201.5" x2="404.9" y2="228.8"/>
	</g>
	<circle id="_Path_19" class="st3" cx="902.9" cy="143.3" r="8.3"/>
	<g id="_Group_10">
		<line id="_Path_20" class="st3" x1="940.3" y1="14.1" x2="930.3" y2="24.1"/>
		<line id="_Path_21" class="st3" x1="940.3" y1="24.1" x2="930.3" y2="14.1"/>
	</g>
	<g>
		<g>
			<path id="_Path_22" class="st3" d="M932,102.6c2.9,6.1,9,10,15.7,10h134c14.6,0,26.5-11.8,26.5-26.4s-11.8-26.5-26.4-26.5
				c-3.4,0-6.7,0.6-9.9,1.9c-5.8-21.7-28.1-34.7-49.8-28.9c-17.2,4.6-29.4,19.8-30.2,37.6c-11.2-4.9-24.2,0.2-29.1,11.4
				c-0.5,1-0.8,2.1-1.1,3.2c-3.3-4.4-8.4-7-13.9-7"/>
		</g>
		<path id="_Path_23" class="st3" d="M939.6,79.7c-5.7,3-9.2,8.9-9.2,15.4"/>
	</g>
	<g id="_Group_11">
		<path class="st5" d="M831.1,434.8l-6.6-3.6c1.5-3.5,1.1-7.6-1.2-10.7l-2.3-3.2c-4.1-5.8-10.2-9.8-17.1-11.4l-6.2-1.5
			c-3.1-0.7-6.1-0.1-8.6,1.6c-3.1-9.1-11.5-8.9-14.7-8.4c-0.1-2.7-1.2-5.4-3.4-7.5l-4.6-4.4c-5.1-4.9-11.8-7.8-18.9-8.1l-3.9-0.2
			c-3.8-0.2-7.5,1.7-9.6,4.9l-6.6-3.6c-0.5-0.3-1.1-0.1-1.4,0.4c-0.3,0.5-0.1,1.1,0.4,1.4l6.5,3.5l-2.4,4.5
			c-4.1,7.7-1.3,17.3,6.4,21.5l7.9,4.3c2.1,1.1,4.4,1.8,6.7,2.1c5.7,0.6,11.4-1.4,15.4-5.9l4.6-5.1c1.5-1.7,2.4-3.7,2.7-5.8
			c1-0.2,3-0.4,5.2,0c4,0.8,6.7,3.3,7.9,7.5c0,0.1,0.1,0.1,0.1,0.2c-1.3,1.3-2.4,3-2.9,5l-1.7,6.7c-2.2,8.1,1.5,16.6,8.9,20.6
			l7.9,4.3c1.9,1,3.8,1.6,5.8,1.8c6.2,0.7,12.6-2.4,15.7-8.2l2.4-4.5l6.5,3.5c0.1,0.1,0.2,0.1,0.4,0.1c0.4,0,0.8-0.1,1-0.5
			C831.7,435.7,831.5,435.1,831.1,434.8z M770.1,404.2l-4.6,5.1c-5,5.5-13.1,6.9-19.6,3.4l0,0l-7.9-4.2c-6.7-3.6-9.2-12.1-5.6-18.8
			l2.9-5.4c1.6-3,4.9-4.9,8.3-4.7l3.9,0.2c0.6,0,1.2,0.1,1.8,0.1c5.9,0.7,11.5,3.2,15.8,7.4l4.6,4.4
			C773.2,395,773.4,400.5,770.1,404.2z M819.4,436.6c-3.6,6.7-12.1,9.2-18.8,5.6l-7.9-4.3c-6.6-3.6-9.8-11.1-7.9-18.4l1.7-6.7
			c1.3-4.7,6-7.6,10.7-6.5l6.2,1.5c6.4,1.5,12.1,5.3,15.9,10.6l2.3,3.2c2,2.8,2.2,6.5,0.6,9.5L819.4,436.6z"/>
		<g>
			<path class="st6" d="M820.5,420.7c-3.5,0.2-7,0.2-10.3-0.1c-5.3-0.4-10.6-1-15.7-2.5c-2.9-0.8-5.7-1.9-8.3-3.3l-1.3,4.9
				c-1.9,7.2,1.3,14.7,7.8,18.2l7.4,4c6.8,3.6,15.2,1.1,18.8-5.6l2.7-5c1.7-3.1,1.5-7-0.6-9.9L820.5,420.7z"/>
			<path class="st6" d="M744.4,380.1c1.8,3,3.8,6,6,8.6c3.3,4.2,6.9,8.3,11,11.8c2.3,2,4.8,3.7,7.5,5.1l-3.3,3.8
				c-4.8,5.6-12.9,7.1-19.6,3.6l-7.5-4c-6.9-3.6-9.6-12.1-6.1-19l2.6-5.1c1.6-3.2,5-5.1,8.6-5L744.4,380.1z"/>
		</g>
	</g>
	<g id="_Group_13">
		<circle id="_Path_31" class="st3" cx="609.8" cy="440.9" r="51"/>
		<path id="_Path_32" class="st7" d="M664.2,435.6h-18c-2.9-20.1-21.6-34.1-41.7-31.1c-20.1,2.9-34.1,21.6-31.1,41.7
			c2.9,20.1,21.6,34.1,41.7,31.1c16.1-2.3,28.8-15,31.1-31.1h18c2.9,0,5.3-2.4,5.3-5.3C669.5,438,667.1,435.6,664.2,435.6z"/>
		<circle id="_Path_33" class="st8" cx="609.8" cy="440.9" r="29.2"/>
		<path id="_Path_34" class="st9" d="M628.4,420.8c-11.1-10.3-28.5-9.6-38.8,1.5c-9.7,10.5-9.7,26.7,0,37.3
			c-5.1-16.4,4.1-33.7,20.4-38.8C616,418.9,622.4,418.9,628.4,420.8z"/>
	</g>
	<g id="_Group_14">
		
			<rect id="_Rectangle_6" x="371.2" y="381.9" transform="matrix(0.2239 -0.9746 0.9746 0.2239 -79.6638 764.7274)" class="st3" width="138.2" height="101"/>
		<g id="_Group_15">
			
				<rect id="_Rectangle_7" x="419.8" y="383.9" transform="matrix(0.2239 -0.9746 0.9746 0.2239 -50.4509 725.9365)" class="st3" width="21.5" height="21.5"/>
			<g id="_Group_16">
				<line id="_Path_35" class="st3" x1="414" y1="419.9" x2="469.8" y2="432.8"/>
				<line id="_Path_36" class="st3" x1="411.1" y1="432.5" x2="466.9" y2="445.3"/>
				<line id="_Path_37" class="st3" x1="408.2" y1="445.1" x2="464" y2="457.9"/>
				<line id="_Path_38" class="st3" x1="405.3" y1="457.7" x2="461.1" y2="470.5"/>
				<line id="_Path_39" class="st3" x1="402.4" y1="470.3" x2="458.2" y2="483.1"/>
			</g>
		</g>
	</g>
	<g id="_Group_17">
		
			<rect id="_Rectangle_8" x="923.6" y="377.7" transform="matrix(0.7487 -0.6629 0.6629 0.7487 -43.6046 751.6617)" class="st7" width="92" height="111.2"/>
		
			<rect id="_Rectangle_9" x="918.5" y="376.6" transform="matrix(0.7487 -0.6629 0.6629 0.7487 -47.8445 749.371)" class="st7" width="92" height="122.4"/>
		
			<rect id="_Path_40" x="921.1" y="381.2" transform="matrix(0.7487 -0.6629 0.6629 0.7487 -50.8062 747.8115)" class="st6" width="79.7" height="119.4"/>
		
			<rect id="_Rectangle_10" x="955.5" y="410.5" transform="matrix(0.7487 -0.6629 0.6629 0.7487 -33.012 754.9178)" class="st7" width="47.4" height="21.1"/>
		<polygon id="_Path_41" class="st7" points="963,379.4 954.9,381.8 951.4,389.6 938.5,375 950.1,364.8 		"/>
		
			<rect id="_Rectangle_11" x="928.5" y="402.9" transform="matrix(0.7487 -0.6629 0.6629 0.7487 -72.7667 736.3297)" class="st8" width="12.6" height="122.4"/>
	</g>
	<g id="_Group_18">
		
			<rect id="_Rectangle_12" x="1023.4" y="304.6" transform="matrix(0.3312 -0.9436 0.9436 0.3312 416.7026 1211.1165)" class="st8" width="78.6" height="14.1"/>
		<path id="_Rectangle_13" class="st8" d="M1080.9,259.4L1080.9,259.4c2.2,0.8,3.4,3.2,2.6,5.5l0,0l-3.9,11.1l0,0l-8.1-2.8l0,0
			l3.9-11.1C1076.3,259.8,1078.7,258.6,1080.9,259.4z"/>
		<path id="_Path_42" class="st8" d="M1043,346.3l0.9,11c0.1,1.5,1.5,2.6,3,2.5c0.7-0.1,1.3-0.4,1.8-0.8l7.6-8L1043,346.3z"/>
		
			<rect id="_Rectangle_14" x="1043.3" y="332.8" transform="matrix(0.3312 -0.9436 0.9436 0.3312 383.3546 1220.6062)" class="st7" width="18.7" height="14.1"/>
		<polyline id="_Path_43" class="st3" points="1066.6,279.1 1086.5,286.1 1075.1,318.7 		"/>
	</g>
	<line id="_Path_44" class="st3" x1="74.4" y1="263.4" x2="223.2" y2="263.4"/>
	<line id="_Path_45" class="st3" x1="-2.1" y1="302.7" x2="448.6" y2="302.7"/>
	<path id="_Rectangle_15" class="st3" d="M958.8,156.4h46c7.2,0,13,5.8,13,13v81c0,7.2-5.8,13-13,13h-46c-7.2,0-13-5.8-13-13v-81
		C945.8,162.3,951.6,156.4,958.8,156.4z"/>
	<rect id="_Rectangle_16" x="950.8" y="174.9" class="st10" width="62" height="70"/>
	<rect id="_Rectangle_17" x="972.6" y="163.4" class="st3" width="18.4" height="5.9"/>
	<g id="_Group_19">
		<line id="_Path_46" class="st3" x1="969.1" y1="214.4" x2="977.9" y2="205.5"/>
		<line id="_Path_47" class="st3" x1="985.6" y1="214.4" x2="994.5" y2="205.5"/>
		<line id="_Path_48" class="st3" x1="973.9" y1="217.9" x2="989.7" y2="202"/>
	</g>
	<line id="_Path_49" class="st3" x1="877.6" y1="234.8" x2="925.7" y2="234.8"/>
	<line id="_Path_50" class="st3" x1="1154.8" y1="234.8" x2="1017.8" y2="234.8"/>
	<circle id="_Path_51" class="st3" cx="1160.1" cy="234.8" r="5.3"/>
	<g id="_Group_20">
		<line id="_Path_52" class="st3" x1="409.3" y1="80.1" x2="399.3" y2="90.1"/>
		<line id="_Path_53" class="st3" x1="409.3" y1="90.1" x2="399.3" y2="80.1"/>
	</g>
	<circle id="_Path_54" class="st3" cx="590.6" cy="14.1" r="8.3"/>
	<line id="_Path_55" class="st3" x1="173.7" y1="227.2" x2="310.7" y2="227.2"/>
	<circle id="_Path_56" class="st3" cx="168.3" cy="227.2" r="5.3"/>
</g>
</svg>
