<?xml version="1.0" encoding="utf-8"?>
<!-- Generator: Adobe Illustrator 21.0.0, SVG Export Plug-In . SVG Version: 6.00 Build 0)  -->
<svg version="1.1" id="Layer_1" xmlns="http://www.w3.org/2000/svg" xmlns:xlink="http://www.w3.org/1999/xlink" x="0px" y="0px"
	 viewBox="0 0 100 100" style="enable-background:new 0 0 100 100;" xml:space="preserve">
<g id="Layer_2">
	<g id="Layer_1-2">
		<g id="Calculator">
			<path d="M70.4,86H29.6c-4.6,0-8.4-3.8-8.4-8.4V22.4c0-4.6,3.8-8.4,8.4-8.4h40.8c4.6,0,8.4,3.8,8.4,8.4v55.3
				C78.9,82.3,75.1,86,70.4,86z M29.6,16.4c-3.3,0-6,2.7-6,6v55.3c0,3.3,2.7,6,6,6h40.8c3.3,0,6-2.7,6-6V22.4c0-3.3-2.7-6-6-6H29.6z
				"/>
			<path d="M53.6,81.2h-7.2c-2,0-3.6-1.6-3.6-3.6l0,0l0,0v-4.8c0-2,1.6-3.6,3.6-3.6l0,0h7.2c2,0,3.6,1.6,3.6,3.6l0,0v4.8
				C57.2,79.6,55.6,81.2,53.6,81.2L53.6,81.2z M46.4,71.7c-0.7,0-1.2,0.5-1.2,1.2v4.8c0,0.7,0.5,1.2,1.2,1.2h7.2
				c0.7,0,1.2-0.5,1.2-1.2v-4.8c0-0.7-0.5-1.2-1.2-1.2H46.4z"/>
			<path d="M36.8,81.2h-7.3c-2,0-3.6-1.6-3.6-3.6l0,0l0,0v-4.8c0-2,1.6-3.6,3.6-3.6l0,0h7.2c2,0,3.6,1.6,3.6,3.6l0,0v4.8
				C40.4,79.6,38.8,81.2,36.8,81.2L36.8,81.2z M29.6,71.7c-0.7,0-1.2,0.5-1.2,1.2v4.8c0,0.7,0.5,1.2,1.2,1.2h7.2
				c0.7,0,1.2-0.5,1.2-1.2v-4.8c0-0.7-0.5-1.2-1.2-1.2H29.6z"/>
			<path d="M70.4,81.2h-7.2c-2,0-3.6-1.6-3.6-3.6l0,0l0,0V58.4c0-2,1.6-3.6,3.6-3.6h7.2c2,0,3.6,1.6,3.6,3.6v19.2
				C74,79.6,72.4,81.2,70.4,81.2L70.4,81.2L70.4,81.2z M63.2,57.2c-0.7,0-1.2,0.5-1.2,1.2v19.2c0,0.7,0.5,1.2,1.2,1.2h7.2
				c0.7,0,1.2-0.5,1.2-1.2V58.4c0-0.7-0.5-1.2-1.2-1.2H63.2z"/>
			<path d="M53.6,66.8h-7.2c-2,0-3.6-1.6-3.6-3.6l0,0v-4.8c0-2,1.6-3.6,3.6-3.6h7.2c2,0,3.6,1.6,3.6,3.6v4.8
				C57.2,65.3,55.6,66.8,53.6,66.8z M46.4,57.2c-0.7,0-1.2,0.5-1.2,1.2v4.8c0,0.7,0.5,1.2,1.2,1.2h7.2c0.7,0,1.2-0.5,1.2-1.2v-4.8
				c0-0.7-0.5-1.2-1.2-1.2H46.4z"/>
			<path d="M36.8,66.8h-7.3c-2,0-3.6-1.6-3.6-3.6l0,0v-4.8c0-2,1.6-3.6,3.6-3.6h7.2c2,0,3.6,1.6,3.6,3.6v4.8
				C40.4,65.3,38.8,66.8,36.8,66.8z M29.6,57.2c-0.7,0-1.2,0.5-1.2,1.2v4.8c0,0.7,0.5,1.2,1.2,1.2h7.2c0.7,0,1.2-0.5,1.2-1.2v-4.8
				c0-0.7-0.5-1.2-1.2-1.2H29.6z"/>
			<path d="M53.6,52.4h-7.2c-2,0-3.6-1.6-3.6-3.6v-4.8c0-2,1.6-3.6,3.6-3.6h7.2c2,0,3.6,1.6,3.6,3.6v4.8
				C57.2,50.8,55.6,52.4,53.6,52.4z M46.4,42.8c-0.7,0-1.2,0.5-1.2,1.2v4.8c0,0.7,0.5,1.2,1.2,1.2h7.2c0.7,0,1.2-0.5,1.2-1.2V44
				c0-0.7-0.5-1.2-1.2-1.2H46.4z"/>
			<path d="M36.8,52.4h-7.3c-2,0-3.6-1.6-3.6-3.6v-4.8c0-2,1.6-3.6,3.6-3.6h7.2c2,0,3.6,1.6,3.6,3.6v4.8
				C40.4,50.8,38.8,52.4,36.8,52.4z M29.6,42.8c-0.7,0-1.2,0.5-1.2,1.2v4.8c0,0.7,0.5,1.2,1.2,1.2h7.2c0.7,0,1.2-0.5,1.2-1.2V44
				c0-0.7-0.5-1.2-1.2-1.2H29.6z"/>
			<path d="M70.4,52.4h-7.2c-2,0-3.6-1.6-3.6-3.6v-4.8c0-2,1.6-3.6,3.6-3.6h7.2c2,0,3.6,1.6,3.6,3.6v4.8
				C74,50.8,72.5,52.4,70.4,52.4z M63.2,42.8c-0.7,0-1.2,0.5-1.2,1.2v4.8c0,0.7,0.5,1.2,1.2,1.2h7.2c0.7,0,1.2-0.5,1.2-1.2V44
				c0-0.7-0.5-1.2-1.2-1.2H63.2z"/>
			<path d="M70.4,35.6H29.6c-2,0-3.6-1.6-3.6-3.6v-9.7c0-2,1.6-3.6,3.6-3.6h40.8c2,0,3.6,1.6,3.6,3.6v9.6C74,34,72.5,35.6,70.4,35.6
				z M29.6,21.2c-0.7,0-1.2,0.5-1.2,1.2v9.6c0,0.7,0.5,1.2,1.2,1.2l0,0h40.8c0.7,0,1.2-0.5,1.2-1.2v-9.6c0-0.7-0.5-1.2-1.2-1.2H29.6
				z"/>
			<path d="M66.8,32c-2,0-3.6-1.6-3.6-3.6v-2.5c-0.1-2,1.5-3.7,3.4-3.8c2-0.1,3.7,1.5,3.8,3.4c0,0.1,0,0.2,0,0.3v2.4
				C70.4,30.4,68.8,32,66.8,32z M66.8,24.7c-0.7,0-1.2,0.5-1.2,1.2v2.4c-0.1,0.7,0.4,1.3,1.1,1.3c0.7,0.1,1.3-0.4,1.3-1.1
				c0-0.1,0-0.1,0-0.2v-2.4C68,25.3,67.5,24.7,66.8,24.7z"/>
		</g>
	</g>
</g>
</svg>
