<?xml version="1.0" encoding="utf-8"?>
<!-- Generator: Adobe Illustrator 21.0.0, SVG Export Plug-In . SVG Version: 6.00 Build 0)  -->
<svg version="1.1" id="Layer_1" xmlns="http://www.w3.org/2000/svg" xmlns:xlink="http://www.w3.org/1999/xlink" x="0px" y="0px"
	 viewBox="0 0 100 100" style="enable-background:new 0 0 100 100;" xml:space="preserve">
<title>Asset 1</title>
<g id="Layer_2">
	<g id="Layer_1-2">
		<path d="M39.2,25.2c-0.4,0-0.7-0.3-0.7-0.7c0-1.8,1.7-2.6,3.3-3.3c1.5-0.7,2.5-1.2,2.5-2c0-0.8-1-1.3-2.5-2
			c-1.5-0.7-3.3-1.5-3.3-3.3s1.7-2.6,3.3-3.3c1.5-0.7,2.5-1.2,2.5-2c0-0.4,0.3-0.7,0.7-0.7c0.4,0,0.7,0.3,0.7,0.7
			c0,1.8-1.7,2.6-3.3,3.3c-1.6,0.7-2.5,1.2-2.5,2s1,1.3,2.5,2c1.5,0.7,3.3,1.5,3.3,3.3c0,1.8-1.7,2.6-3.3,3.3
			c-1.6,0.7-2.5,1.2-2.5,2C39.9,24.8,39.6,25.2,39.2,25.2z"/>
		<path d="M48.9,27.5c-0.4,0-0.7-0.3-0.7-0.7c0-1.9,1.7-2.7,3.3-3.5c1.5-0.7,2.5-1.3,2.5-2.2c0-0.9-1-1.4-2.5-2.2
			c-1.5-0.7-3.3-1.6-3.3-3.5s1.7-2.7,3.3-3.5s2.5-1.3,2.5-2.2c0-0.4,0.3-0.7,0.7-0.7c0.4,0,0.7,0.3,0.7,0.7c0,1.9-1.7,2.7-3.3,3.5
			c-1.5,0.8-2.5,1.3-2.5,2.2c0,0.9,1,1.4,2.5,2.2c1.5,0.7,3.3,1.6,3.3,3.5c0,1.9-1.7,2.7-3.3,3.5c-1.5,0.7-2.5,1.3-2.5,2.2
			C49.6,27.2,49.3,27.5,48.9,27.5z"/>
		<path d="M58.6,27.5c-0.4,0-0.7-0.3-0.7-0.7c0-1.9,1.7-2.9,3.3-3.7s2.5-1.4,2.5-2.4s-1-1.6-2.5-2.4c-1.5-0.8-3.3-1.7-3.3-3.7
			s1.7-2.9,3.3-3.7s2.5-1.4,2.5-2.4c0-0.4,0.3-0.7,0.7-0.7c0.4,0,0.7,0.3,0.7,0.7c0,1.9-1.7,2.9-3.3,3.7c-1.5,0.8-2.5,1.4-2.5,2.4
			s1,1.6,2.5,2.4c1.5,0.8,3.3,1.7,3.3,3.7s-1.7,2.9-3.3,3.7s-2.5,1.4-2.5,2.4C59.3,27.2,59,27.5,58.6,27.5
			C58.6,27.5,58.6,27.5,58.6,27.5z"/>
		<circle cx="20.4" cy="28.1" r="3.5"/>
		<circle cx="86.5" cy="30.4" r="2.5"/>
		<circle cx="81.7" cy="80.5" r="1.1"/>
		<circle cx="32.5" cy="9.5" r="1.1"/>
		<ellipse cx="15.3" cy="79" rx="1.6" ry="1.7"/>
		<path d="M74.3,18.6c-2.2,0-4-1.8-4-4s1.8-4,4-4c2.2,0,4,1.8,4,4c0,0,0,0,0,0C78.2,16.8,76.5,18.6,74.3,18.6z M74.3,12.6
			c-1.1,0-2,0.9-2,2s0.9,2,2,2c1.1,0,2-0.9,2-2c0,0,0,0,0,0C76.3,13.5,75.4,12.6,74.3,12.6z"/>
		<path d="M89.1,69.9c-2.2,0-4-1.8-4-4c0-2.2,1.8-4,4-4c2.2,0,4,1.8,4,4C93.1,68.1,91.3,69.9,89.1,69.9L89.1,69.9z M89.1,63.9
			c-1.1,0-2,0.9-2,2c0,1.1,0.9,2,2,2c1.1,0,2-0.9,2-2C91.2,64.8,90.2,63.9,89.1,63.9C89.1,63.9,89.1,63.9,89.1,63.9z"/>
		<path d="M9.5,48.1c-2.9,0-5.3-2.4-5.3-5.3c0-2.9,2.4-5.3,5.3-5.3s5.3,2.4,5.3,5.3C14.8,45.7,12.4,48.1,9.5,48.1
			C9.5,48.1,9.5,48.1,9.5,48.1z M9.5,39.3c-1.9,0-3.4,1.5-3.4,3.4c0,1.9,1.5,3.4,3.4,3.4c1.9,0,3.4-1.5,3.4-3.4
			C12.9,40.9,11.4,39.4,9.5,39.3L9.5,39.3z"/>
		<circle cx="73.4" cy="85.1" r="2.4"/>
		<circle cx="94" cy="52.2" r="1.8"/>
		<circle cx="23.5" cy="87.8" r="1.6"/>
		<path d="M83.1,53.7c3.6-6.3,1.3-14.3-5-17.8c-5.1-2.9-11.6-2-15.7,2.2c-1.2-2.5-4.1-3.6-6.7-2.5c-0.1,0.1-0.2,0.1-0.3,0.2
			c-1.9-1.9-4.9-2-6.9-0.2c-2-4.7-7.5-6.9-12.1-4.8c-3.1,1.3-5.2,4.2-5.5,7.5c-4.8-1.8-10.1,0.7-11.9,5.5c-1,2.8-0.6,6,1.1,8.4
			c-0.5,0.4-0.9,0.9-1.2,1.5h-2c-1.5,0.1-2.6,1.3-2.5,2.8c0.1,1.3,1.1,2.4,2.5,2.5h0.3C17.2,70.1,25.2,80,37,84.1
			c-1.2,0.6-1.9,1.9-1.9,3.2v1.2c0,2,1.7,3.7,3.7,3.7h21.4c2,0,3.7-1.7,3.7-3.7l0,0v-1.2c0-1.3-0.7-2.6-1.9-3.2
			c11.9-4.2,19.8-14,20-25.3h0.3c1.5,0,2.6-1.2,2.6-2.7C84.9,55.1,84.1,54.1,83.1,53.7z M71.6,36.1c6.2,0,11.2,5,11.2,11.2
			c0,2.2-0.7,4.4-1.9,6.3h-1.6c0,0,0-0.1-0.1-0.1l-2-2c-0.4-0.4-1-0.4-1.4,0c-0.4,0.4-0.4,1,0,1.4l0.7,0.7h-4.1
			c-0.3-0.4-0.9-0.5-1.4-0.1c-0.1,0-0.1,0.1-0.1,0.1h-4.2c0,0,0.1,0,0.1-0.1l0.7-0.7c0.4-0.4,0.4-1,0-1.3c0.1-0.3,0.2-0.7,0.3-1
			c1.7,2.1,4.9,2.4,7,0.6c2.1-1.7,2.4-4.9,0.6-7c-1.7-2.1-4.9-2.4-7-0.6c-0.3,0.2-0.5,0.5-0.8,0.8c-0.1-0.4-0.2-0.8-0.2-1l0.1,0
			c0.4-0.4,0.4-1,0-1.4l-2-2c-0.4-0.3-1-0.3-1.4,0.1c-0.3,0.4-0.3,0.9,0,1.3l1.2,1.2c-1.5,0.3-3,0.8-4.4,1.4
			C62.5,39.2,66.8,36.1,71.6,36.1z M68.6,47.3c0-1.7,1.4-3,3-3c1.7,0,3,1.4,3,3c0,1.7-1.4,3-3,3l0,0C70,50.3,68.6,49,68.6,47.3z
			 M64.9,52.9c-0.2,0.3-0.4,0.5-0.6,0.7H57c-0.1-1.8,0.3-3.5,1.2-5.1c1.9-2.9,5.8-3.9,7.5-4.3C66.1,45.9,66.8,50,64.9,52.9z
			 M49.1,37.7c0.9-1.5,2.8-1.9,4.3-1c0.4,0.2,0.7,0.5,1,0.9c0.2,0.2,0.4,0.4,0.7,0.4c0.3,0,0.5,0,0.7-0.2c1.3-1.1,3.3-0.9,4.4,0.4
			c0.4,0.4,0.6,1,0.7,1.5c0,0,0,0.1,0,0.1c-1.2,1.6-1.9,3.5-2.2,5.5c-0.8,0.6-1.5,1.4-2,2.2c-0.1,0.2-0.3,0.5-0.4,0.7
			c-0.6-0.3-1.3-0.5-1.9-0.6c-0.1-3-2.3-5.6-5.3-6.2C49.3,40.1,49.3,38.9,49.1,37.7L49.1,37.7z M52.4,47.9c0,0.1,0,0.3,0,0.4
			c0,0.3,0.1,0.5,0.3,0.7c0.2,0.2,0.4,0.3,0.7,0.3c0.8,0,1.5,0.2,2.2,0.5c-0.3,1.2-0.5,2.4-0.5,3.6H21.3c0.5-0.4,1.1-0.8,1.8-1
			c0.4-0.1,0.6-0.4,0.7-0.8c0.5-2.6,3-4.3,5.6-3.8c1.4,0.3,2.5,1.1,3.2,2.3c0.3,0.5,0.9,0.6,1.3,0.4c0.3-0.2,0.5-0.6,0.5-1
			c-0.3-2.6,1.6-5,4.2-5.3c1.3-0.1,2.6,0.2,3.6,1.1c0.4,0.3,1,0.2,1.3-0.2c0,0,0-0.1,0.1-0.1c1.5-2.2,4.5-2.7,6.7-1.2
			C51.6,44.9,52.4,46.3,52.4,47.9L52.4,47.9z M34.4,42.8c0-0.1,0-0.1,0-0.2c0-3.1,2.5-5.7,5.6-5.7c2.7,0,5.1,1.9,5.6,4.6
			c-1.1,0.4-2.1,1-2.9,1.9c-3.2-1.9-7.3-0.9-9.2,2.3c-0.3,0.6-0.6,1.2-0.8,1.8c-2.3-1.9-5.6-2-8-0.3c0.9-3,4-4.7,7-3.8
			c0.4,0.1,0.8,0.3,1.2,0.5c0.5,0.3,1,0.1,1.3-0.3C34.3,43.3,34.4,43.1,34.4,42.8L34.4,42.8z M27.6,39.5c1.3,0,2.5,0.3,3.6,1
			c0.5,0.3,1,0.1,1.3-0.3c0.1-0.2,0.1-0.3,0.1-0.5v-0.2c0-0.1,0-0.2,0-0.3c0-4,3.3-7.3,7.3-7.3s7.3,3.3,7.3,7.3c0,0.4,0,0.7-0.1,1.1
			c-1.3-4-5.6-6.2-9.6-4.9c-2.8,0.9-4.8,3.3-5.2,6.2c-4-1.3-8.3,0.8-9.6,4.8c-0.3,0.8-0.4,1.6-0.4,2.4c0,0.3,0,0.5,0,0.8
			c-0.2,0.5-0.4,1-0.5,1.5c-0.1,0-0.2,0.1-0.3,0.2c-2.3-3.3-1.5-7.9,1.8-10.2C24.7,40,26.1,39.6,27.6,39.5L27.6,39.5z M56.5,83.7
			L56.5,83.7l-0.3,0.1L56,83.9L55.9,84c-0.1,0.1-0.2,0.3-0.2,0.5c0,0.1,0,0.2,0,0.3c0,0,0,0.1,0,0.1c0,0.1,0.1,0.2,0.2,0.3l0.1,0.1
			c0.1,0,0.1,0.1,0.2,0.1l0.1,0.1c0.1,0,0.2,0.1,0.3,0.1h3.6c1,0,1.8,0.8,1.8,1.8l0,0v1.2c0,1-0.8,1.8-1.8,1.8l0,0H38.8
			c-1,0-1.8-0.8-1.8-1.8l0,0v-1.2c0-1,0.8-1.8,1.8-1.8l0,0h3.6c0.1,0,0.2,0,0.3-0.1l0.1-0.1c0.1,0,0.1-0.1,0.2-0.1l0.1-0.1
			c0.1-0.1,0.1-0.2,0.2-0.3c0,0,0-0.1,0-0.1c0-0.1,0-0.1,0-0.2c0,0,0-0.1,0-0.1c0-0.2-0.1-0.4-0.2-0.5l-0.1-0.1l-0.1-0.1l-0.2-0.1
			h-0.1C28.8,81,19.2,70.8,19,58.9h61C79.8,70.8,70.2,81,56.5,83.7L56.5,83.7z M82.2,56.9H16.8c-0.4,0-0.7-0.4-0.6-0.8
			c0-0.3,0.3-0.6,0.6-0.6h65.5c0.4,0,0.7,0.4,0.6,0.8C82.8,56.6,82.6,56.9,82.2,56.9z"/>
		<path d="M71.7,41.5c0.5,0,1-0.4,1-1v-2.9c0-0.5-0.4-1-1-1c-0.5,0-1,0.4-1,1v2.9C70.8,41.1,71.2,41.5,71.7,41.5z"/>
		<path d="M77.6,47.3c0,0.5,0.4,1,1,1h2.9c0.5,0,1-0.4,1-1s-0.4-1-1-1h-2.9C78,46.4,77.6,46.8,77.6,47.3z"/>
		<path d="M76.5,43.5c0.3,0,0.5-0.1,0.7-0.3l2-2c0.3-0.4,0.3-1-0.1-1.4c-0.4-0.3-0.9-0.3-1.3,0l-2,2c-0.4,0.4-0.4,1,0,1.4
			C76,43.4,76.3,43.5,76.5,43.5L76.5,43.5z"/>
		<path d="M47.2,51.4c1.5,0,2.6-1.2,2.6-2.7c0-1.5-1.2-2.6-2.7-2.6c-1.5,0-2.6,1.2-2.6,2.7C44.5,50.2,45.7,51.4,47.2,51.4z M47.2,47
			c0.9,0,1.7,0.8,1.7,1.7s-0.8,1.7-1.7,1.7c-0.9,0-1.7-0.8-1.7-1.7C45.5,47.8,46.3,47,47.2,47C47.2,47,47.2,47,47.2,47L47.2,47z"/>
		<path d="M39.8,47c-0.9,0-1.6,0.7-1.6,1.6s0.7,1.6,1.6,1.6c0.9,0,1.6-0.7,1.6-1.6S40.7,47,39.8,47L39.8,47z M39.8,49.2
			c-0.3,0-0.6-0.3-0.6-0.6s0.3-0.6,0.6-0.6c0.3,0,0.6,0.3,0.6,0.6C40.4,48.9,40.1,49.2,39.8,49.2L39.8,49.2z"/>
		<path d="M56.3,44.5c0.7,0,1.4-0.6,1.4-1.4c0-0.7-0.6-1.4-1.4-1.4c-0.7,0-1.4,0.6-1.4,1.4l0,0C54.9,43.9,55.5,44.5,56.3,44.5z
			 M56.3,42.7c0.2,0,0.4,0.2,0.4,0.4c0,0.2-0.2,0.4-0.4,0.4c-0.2,0-0.4-0.2-0.4-0.4l0,0C55.9,42.9,56.1,42.7,56.3,42.7z"/>
		<path d="M28.1,49.9c-0.6,0-1.2,0.5-1.2,1.2s0.5,1.2,1.2,1.2c0.6,0,1.2-0.5,1.2-1.2c0,0,0,0,0,0C29.3,50.4,28.8,49.9,28.1,49.9z
			 M27.9,51.1c0-0.1,0.1-0.2,0.2-0.2s0.2,0.1,0.2,0.2C28.3,51.3,27.9,51.3,27.9,51.1z"/>
		<path d="M42.3,50.3c-0.6,0-1.2,0.5-1.2,1.2c0,0.6,0.5,1.2,1.2,1.2c0.6,0,1.2-0.5,1.2-1.2c0,0,0,0,0,0
			C43.5,50.8,42.9,50.3,42.3,50.3z M42.1,51.5c0-0.1,0.1-0.2,0.2-0.2s0.2,0.1,0.2,0.2C42.5,51.7,42.1,51.7,42.1,51.5L42.1,51.5z"/>
		<circle cx="57.6" cy="39.3" r="1.1"/>
		<circle cx="36.8" cy="52.1" r="1.1"/>
		<path d="M53,41.7c1,0,1.8-0.8,1.8-1.8S54,38,53,38c-1,0-1.8,0.8-1.8,1.8S52,41.7,53,41.7L53,41.7z M53,39c0.5,0,0.9,0.4,0.9,0.9
			c0,0.5-0.4,0.9-0.9,0.9c-0.5,0-0.9-0.4-0.9-0.9C52.1,39.4,52.5,39,53,39L53,39z"/>
		<circle cx="59.6" cy="50.8" r="1.3"/>
		<circle cx="85" cy="14" r="1.3"/>
		<circle cx="7.9" cy="62.2" r="2.6"/>
	</g>
</g>
</svg>
