<?xml version="1.0" encoding="utf-8"?>
<!-- Generator: Adobe Illustrator 21.0.0, SVG Export Plug-In . SVG Version: 6.00 Build 0)  -->
<svg version="1.1" id="Layer_1" xmlns="http://www.w3.org/2000/svg" xmlns:xlink="http://www.w3.org/1999/xlink" x="0px" y="0px"
	 viewBox="0 0 100 100" style="enable-background:new 0 0 100 100;" xml:space="preserve">
<title>Asset 2</title>
<g id="Layer_2">
	<g id="Layer_1-2">
		<path d="M20.2,65c0.3,0.3,0.7,0.5,1.1,0.7c0.4,0.2,0.9,0.3,1.3,0.3c0.4,0,0.7-0.1,1-0.2c0.3-0.1,0.6-0.3,0.9-0.5
			c0,0,0.1-0.1,0.1-0.1c0,0,0-0.1,0-0.1v-2.2c0-0.1-0.1-0.3-0.3-0.3c0,0,0,0,0,0h-1.7c-0.1,0-0.1,0-0.2,0.1
			c-0.1,0.1-0.1,0.1-0.1,0.2c0,0.1,0,0.1,0.1,0.2c0.1,0.1,0.1,0.1,0.2,0.1h1.5V65c-0.2,0.1-0.4,0.2-0.7,0.3
			c-0.3,0.1-0.6,0.1-0.8,0.1c-0.5,0-1-0.1-1.4-0.4c-0.4-0.2-0.7-0.6-0.9-1c-0.5-0.9-0.5-2,0-2.9c0.2-0.4,0.5-0.7,0.9-1
			c0.4-0.2,0.9-0.4,1.4-0.4c0.3,0,0.5,0,0.8,0.1c0.2,0.1,0.5,0.2,0.7,0.3h0.1h0.1c0.1,0,0.1,0,0.2-0.1c0.1-0.1,0.1-0.1,0.1-0.2
			c0,0,0-0.1,0-0.1c0,0-0.1-0.1-0.1-0.1c-0.3-0.2-0.5-0.3-0.8-0.3c-0.3-0.1-0.6-0.1-0.9-0.1c-0.5,0-0.9,0.1-1.3,0.3
			c-0.8,0.3-1.4,1-1.8,1.8c-0.3,0.9-0.3,1.8,0,2.7C19.6,64.3,19.9,64.7,20.2,65z"/>
		<path d="M26.8,65.6c0.7,0.4,1.7,0.4,2.4,0c0.4-0.2,0.6-0.5,0.8-0.9c0.4-0.8,0.4-1.7,0-2.5c-0.2-0.4-0.5-0.7-0.8-0.9
			c-0.7-0.4-1.7-0.4-2.4,0c-0.4,0.2-0.7,0.5-0.8,0.9c-0.4,0.8-0.4,1.7,0,2.5C26.1,65.1,26.4,65.4,26.8,65.6z M26.4,62.5
			c0.1-0.3,0.4-0.5,0.6-0.7c0.3-0.2,0.6-0.3,0.9-0.3c0.3,0,0.6,0.1,0.9,0.3c0.3,0.2,0.5,0.4,0.6,0.7c0.2,0.3,0.3,0.6,0.3,1
			c0,0.3-0.1,0.7-0.2,1c-0.1,0.3-0.4,0.5-0.6,0.7c-0.3,0.2-0.6,0.3-0.9,0.3c-0.3,0-0.6-0.1-0.9-0.3c-0.3-0.2-0.5-0.4-0.7-0.7
			c-0.2-0.3-0.2-0.7-0.2-1C26.2,63.1,26.2,62.8,26.4,62.5z"/>
		<path d="M32.3,65.6c0.7,0.4,1.7,0.4,2.4,0c0.4-0.2,0.6-0.5,0.8-0.9c0.4-0.8,0.4-1.7,0-2.5c-0.2-0.4-0.5-0.7-0.8-0.9
			c-0.7-0.4-1.7-0.4-2.4,0c-0.4,0.2-0.7,0.5-0.8,0.9c-0.4,0.8-0.4,1.7,0,2.5C31.6,65.1,31.9,65.4,32.3,65.6z M31.9,62.5
			c0.1-0.3,0.4-0.5,0.6-0.7c0.3-0.2,0.6-0.3,0.9-0.3c0.3,0,0.6,0.1,0.9,0.3c0.3,0.2,0.5,0.4,0.6,0.7c0.1,0.3,0.2,0.6,0.2,1
			c0,0.3-0.1,0.7-0.2,1c-0.1,0.3-0.4,0.5-0.6,0.7c-0.3,0.2-0.6,0.3-0.9,0.3c-0.3,0-0.6-0.1-0.9-0.3c-0.3-0.2-0.5-0.4-0.6-0.7
			c-0.2-0.3-0.3-0.7-0.2-1C31.7,63.1,31.8,62.8,31.9,62.5z"/>
		<path d="M36.9,62.2c-0.4,0.8-0.4,1.7,0,2.5c0.2,0.4,0.4,0.7,0.8,0.9c0.3,0.2,0.7,0.3,1.1,0.3c0.3,0,0.5,0,0.7-0.1
			c0.2-0.1,0.4-0.2,0.6-0.4c0.2-0.1,0.3-0.3,0.4-0.5v0.7c0,0.1,0,0.1,0.1,0.2c0.1,0.1,0.1,0.1,0.2,0.1c0.2,0,0.3-0.1,0.3-0.3v-6.3
			c0-0.1-0.1-0.3-0.3-0.3c0,0,0,0,0,0c-0.1,0-0.2,0-0.2,0.1c0,0.1-0.1,0.1-0.1,0.2v2.8c-0.1-0.2-0.2-0.3-0.4-0.5
			c-0.2-0.2-0.4-0.3-0.6-0.4c-0.2-0.1-0.5-0.1-0.7-0.1c-0.4,0-0.8,0.1-1.1,0.3C37.4,61.6,37.1,61.9,36.9,62.2z M38.9,61.5
			c0.3,0,0.6,0.1,0.9,0.3c0.3,0.2,0.5,0.4,0.6,0.7c0.3,0.6,0.3,1.4,0,2c-0.1,0.3-0.3,0.5-0.6,0.7c-0.5,0.3-1.2,0.3-1.7,0
			c-0.3-0.2-0.5-0.4-0.6-0.7c-0.2-0.3-0.2-0.7-0.2-1c0-0.3,0.1-0.7,0.2-1c0.1-0.3,0.3-0.5,0.6-0.7C38.3,61.6,38.6,61.5,38.9,61.5z"
			/>
		<path d="M45.6,62v-0.6c0-0.1,0-0.1-0.1-0.2c-0.1-0.1-0.3-0.1-0.4,0c0,0,0,0,0,0c0,0.1-0.1,0.1-0.1,0.2v4.2c0,0.1,0,0.1,0.1,0.2
			c0.1,0.1,0.1,0.1,0.2,0.1c0.2,0,0.3-0.1,0.3-0.3v-2.6c0-0.2,0.1-0.5,0.2-0.7c0.3-0.4,0.8-0.7,1.3-0.7c0.2,0,0.5,0.1,0.7,0.2
			c0.2,0.1,0.3,0.3,0.4,0.5c0.1,0.2,0.1,0.5,0.1,0.7v2.6c0,0.1,0,0.1,0.1,0.2c0.1,0.1,0.3,0.1,0.4,0c0,0,0,0,0,0
			c0-0.1,0.1-0.1,0.1-0.2V63c0-0.2,0.1-0.5,0.2-0.7c0.1-0.2,0.3-0.4,0.6-0.5c0.2-0.1,0.5-0.2,0.7-0.2c0.2,0,0.5,0.1,0.7,0.2
			c0.2,0.1,0.3,0.3,0.4,0.5c0.1,0.2,0.1,0.5,0.1,0.7v2.6c0,0.1,0,0.1,0.1,0.2c0.1,0.1,0.3,0.1,0.4,0c0,0,0,0,0,0
			c0-0.1,0.1-0.1,0.1-0.2v-2.6c0-0.3-0.1-0.6-0.2-0.9c-0.1-0.3-0.3-0.5-0.5-0.7c-0.3-0.2-0.6-0.3-0.9-0.3c-0.3,0-0.5,0.1-0.7,0.1
			c-0.2,0.1-0.4,0.2-0.6,0.4c-0.2,0.1-0.3,0.3-0.4,0.5c-0.1-0.3-0.3-0.6-0.5-0.7c-0.3-0.2-0.6-0.3-1-0.3c-0.2,0-0.5,0-0.7,0.1
			c-0.2,0.1-0.4,0.2-0.6,0.4C45.8,61.7,45.7,61.8,45.6,62z"/>
		<path d="M54.4,61.3c-0.4,0.2-0.7,0.5-0.8,0.9c-0.4,0.8-0.4,1.7,0,2.5c0.2,0.4,0.5,0.7,0.8,0.9c0.7,0.4,1.6,0.4,2.4,0
			c0.4-0.2,0.7-0.5,0.8-0.9c0.4-0.8,0.4-1.7,0-2.5c-0.2-0.4-0.5-0.7-0.8-0.9C56,60.9,55.1,60.9,54.4,61.3z M57.1,62.5
			c0.1,0.3,0.2,0.6,0.2,1c0,0.3-0.1,0.7-0.2,1c-0.1,0.3-0.4,0.5-0.6,0.7c-0.6,0.3-1.3,0.3-1.9,0c-0.3-0.2-0.5-0.4-0.6-0.7
			c-0.2-0.3-0.2-0.7-0.2-1c0-0.3,0.1-0.7,0.2-1c0.1-0.3,0.4-0.5,0.6-0.7c0.6-0.3,1.3-0.3,1.9,0C56.7,61.9,57,62.2,57.1,62.5
			L57.1,62.5z"/>
		<path d="M61.6,61.1c-0.1,0-0.2-0.1-0.3-0.1c-0.2,0-0.5,0.1-0.7,0.2c-0.2,0.1-0.4,0.3-0.6,0.4c-0.1,0.2-0.3,0.4-0.4,0.6v0.1v-0.8
			c0-0.1,0-0.1-0.1-0.2c-0.1-0.1-0.3-0.1-0.4,0c0,0,0,0,0,0c0,0.1-0.1,0.1-0.1,0.2v4.2c0,0.1,0,0.1,0.1,0.2c0.1,0.1,0.1,0.1,0.2,0.1
			c0.2,0,0.3-0.1,0.3-0.3v-2.3c0-0.2,0-0.4,0.1-0.6c0.1-0.2,0.2-0.4,0.3-0.6c0.1-0.2,0.3-0.3,0.5-0.4c0.2-0.1,0.3-0.2,0.5-0.2
			c0.1,0,0.2,0,0.3,0c0.1,0,0.1,0,0.2,0c0.1,0,0.1,0,0.2-0.1c0.1-0.1,0.1-0.1,0.1-0.2C61.7,61.1,61.7,61.1,61.6,61.1z"/>
		<path d="M63.1,61.9v-0.5c0-0.1,0-0.1-0.1-0.2c-0.1-0.1-0.3-0.1-0.4,0c0,0,0,0,0,0c0,0.1-0.1,0.1-0.1,0.2v4.2c0,0.1,0,0.1,0.1,0.2
			c0.1,0.1,0.1,0.1,0.2,0.1c0.2,0,0.3-0.1,0.3-0.3v-2.7c0-0.2,0.1-0.5,0.2-0.7c0.2-0.2,0.4-0.4,0.6-0.5c0.2-0.1,0.5-0.2,0.8-0.2
			c0.3,0,0.5,0.1,0.7,0.2c0.2,0.1,0.3,0.3,0.4,0.5c0.1,0.2,0.1,0.4,0.1,0.7v2.7c0,0.1,0,0.1,0.1,0.2c0.1,0.1,0.1,0.1,0.2,0.1
			c0.2,0,0.3-0.1,0.3-0.3v-2.7c0-0.3,0-0.6-0.2-0.9c-0.1-0.3-0.3-0.5-0.5-0.7c-0.3-0.2-0.6-0.3-1-0.3c-0.2,0-0.4,0-0.7,0.1
			c-0.2,0.1-0.4,0.2-0.6,0.3C63.4,61.6,63.3,61.7,63.1,61.9z"/>
		<path d="M68.2,61c-0.1,0-0.1,0-0.2,0.1c-0.1,0.1-0.1,0.1-0.1,0.2v4.3c0,0.1,0,0.1,0.1,0.2c0.1,0.1,0.1,0.1,0.2,0.1
			c0.2,0,0.3-0.1,0.3-0.3v-4.3c0-0.1,0-0.1-0.1-0.2C68.4,61,68.3,61,68.2,61z"/>
		<path d="M68.2,60.4c0.1,0,0.2,0,0.3-0.1c0.1-0.1,0.1-0.2,0.1-0.3V60c0-0.1,0-0.2-0.1-0.3c-0.1-0.1-0.2-0.1-0.3-0.1
			c-0.1,0-0.2,0-0.3,0.1c-0.1,0.1-0.1,0.2-0.1,0.3V60c0,0.1,0,0.2,0.1,0.3C68,60.4,68.1,60.4,68.2,60.4z"/>
		<path d="M70.2,65.8c0.2,0,0.3-0.1,0.3-0.3v-2.7c0-0.2,0.1-0.5,0.2-0.7c0.2-0.2,0.4-0.4,0.6-0.5c0.2-0.1,0.5-0.2,0.8-0.2
			c0.3,0,0.5,0.1,0.7,0.2c0.2,0.1,0.3,0.3,0.4,0.5c0.1,0.2,0.1,0.4,0.1,0.7v2.7c0,0.1,0,0.1,0.1,0.2c0.1,0.1,0.1,0.1,0.2,0.1
			c0.2,0,0.3-0.1,0.3-0.3v-2.7c0-0.3,0-0.6-0.2-0.9c-0.1-0.3-0.3-0.5-0.5-0.7c-0.3-0.2-0.6-0.3-1-0.3c-0.2,0-0.4,0-0.7,0.1
			c-0.2,0.1-0.4,0.2-0.6,0.3c-0.2,0.1-0.3,0.3-0.4,0.5v-0.5c0-0.1,0-0.1-0.1-0.2c-0.1-0.1-0.3-0.1-0.4,0c0,0,0,0,0,0
			c0,0.1-0.1,0.1-0.1,0.2v4.2c0,0.1,0,0.1,0.1,0.2C70.1,65.8,70.1,65.8,70.2,65.8z"/>
		<path d="M76.1,65.6c0.3,0.2,0.7,0.3,1.2,0.3c0.4,0,0.8-0.1,1.1-0.3c0.2-0.1,0.3-0.3,0.5-0.4c0.1-0.1,0.1-0.2,0.2-0.3v0.6
			c0.1,0.9-0.6,1.7-1.5,1.7c-0.1,0-0.2,0-0.2,0c-0.2,0-0.3,0-0.5,0c-0.1,0-0.3-0.1-0.4-0.1L76.2,67l-0.3-0.1c-0.1,0-0.1,0-0.2,0
			c0,0-0.1,0.1-0.1,0.1c0,0.1,0,0.1,0.1,0.2c0,0.1,0.1,0.2,0.3,0.3c0.2,0.1,0.4,0.2,0.6,0.2c0.2,0.1,0.5,0.1,0.7,0.1
			c0.4,0,0.8-0.1,1.2-0.3c0.3-0.2,0.6-0.4,0.8-0.8c0.2-0.4,0.3-0.8,0.3-1.3v-4c0-0.1,0-0.1-0.1-0.2c-0.1-0.1-0.3-0.1-0.4,0
			c0,0,0,0,0,0c-0.1,0.1-0.1,0.1-0.1,0.2V62c-0.1-0.2-0.2-0.3-0.4-0.5c-0.2-0.2-0.4-0.3-0.6-0.4C77.8,61,77.5,61,77.2,61
			c-0.4,0-0.8,0.1-1.1,0.3c-0.3,0.2-0.6,0.5-0.8,0.9c-0.4,0.8-0.4,1.7,0,2.5C75.5,65.1,75.7,65.4,76.1,65.6z M75.7,62.5
			c0.1-0.3,0.4-0.5,0.6-0.7c0.3-0.2,0.6-0.3,0.9-0.3c0.3,0,0.6,0.1,0.9,0.2c0.3,0.2,0.5,0.4,0.6,0.7c0.3,0.6,0.3,1.4,0,2
			c-0.1,0.3-0.4,0.5-0.6,0.7c-0.6,0.4-1.3,0.4-1.9,0c-0.3-0.2-0.5-0.4-0.6-0.7c-0.2-0.3-0.3-0.7-0.3-1
			C75.5,63.1,75.6,62.8,75.7,62.5z"/>
		<path d="M35.3,47.3c0.1,0,0.2,0,0.3-0.1l1.4-0.8v7.1c0,0.1,0.1,0.3,0.2,0.4c0.2,0.2,0.6,0.2,0.8,0c0.1-0.1,0.2-0.2,0.2-0.4v-8
			c0-0.1,0-0.3-0.1-0.4C37.8,45,37.7,45,37.6,45c-0.1,0-0.3,0-0.4,0.1l-2.1,1.3c-0.2,0.1-0.3,0.3-0.3,0.5c0,0.1,0.1,0.3,0.2,0.4
			C35,47.2,35.2,47.3,35.3,47.3z"/>
		<path d="M41.3,53.6c1.1,0.8,2.5,0.8,3.6,0c0.5-0.4,0.9-1,1.1-1.7c0.5-1.6,0.5-3.2,0-4.8c-0.2-0.6-0.6-1.2-1.1-1.6
			c-1.1-0.8-2.5-0.8-3.6,0c-0.5,0.4-0.9,1-1.1,1.7c-0.5,1.6-0.5,3.2,0,4.8C40.4,52.6,40.8,53.1,41.3,53.6z M41.2,47.6
			c0.1-0.5,0.4-0.9,0.7-1.2c0.7-0.6,1.7-0.6,2.3,0c0.3,0.3,0.6,0.8,0.7,1.2c0.3,1.3,0.3,2.6,0,3.9c-0.1,0.5-0.4,0.9-0.7,1.3
			c-0.7,0.6-1.7,0.6-2.3,0c-0.3-0.3-0.6-0.8-0.7-1.3C40.9,50.2,40.9,48.8,41.2,47.6z"/>
		<path d="M48.3,54.1h0.1c0.2,0,0.3,0,0.4-0.2c0.1-0.1,0.1-0.3,0.1-0.4v-0.2c0-0.2,0-0.3-0.1-0.4c-0.1-0.1-0.3-0.2-0.4-0.2h-0.1
			c-0.2,0-0.3,0-0.4,0.2c-0.1,0.1-0.2,0.3-0.1,0.4v0.3c0,0.2,0,0.3,0.1,0.4C48,54,48.2,54.1,48.3,54.1z"/>
		<path d="M48.3,48.8h0.1c0.2,0,0.3-0.1,0.4-0.2c0.1-0.1,0.1-0.3,0.1-0.4v-0.3c0-0.2,0-0.3-0.1-0.4c-0.1-0.1-0.3-0.2-0.4-0.2h-0.1
			c-0.2,0-0.3,0-0.4,0.2c-0.1,0.1-0.2,0.3-0.1,0.4v0.3c0,0.2,0,0.3,0.1,0.4C48,48.7,48.2,48.8,48.3,48.8z"/>
		<path d="M50.8,45.9H54l-2.3,2.6c-0.1,0.1-0.1,0.1-0.1,0.2c0,0.1,0,0.1,0,0.2c0,0.1,0,0.3,0.1,0.4c0.1,0.1,0.2,0.1,0.3,0.1
			c0.1,0,0.2,0,0.3,0l0.3-0.1c0.1,0,0.2,0,0.3,0c0.3,0,0.6,0.1,0.9,0.2c0.3,0.1,0.6,0.3,0.7,0.6c0.2,0.3,0.3,0.7,0.3,1.1
			c0,0.4-0.1,0.7-0.3,1.1c-0.2,0.3-0.4,0.6-0.8,0.7c-0.6,0.3-1.2,0.3-1.9,0.1c-0.2-0.1-0.4-0.2-0.6-0.4c-0.1-0.1-0.1-0.1-0.2-0.1
			c-0.1,0-0.1,0-0.2,0c-0.1,0-0.3,0.1-0.4,0.2c-0.1,0.1-0.1,0.2-0.1,0.4c0,0.1,0,0.2,0.1,0.2c0.1,0.1,0.1,0.2,0.2,0.2
			c0.3,0.2,0.5,0.4,0.9,0.5c0.3,0.1,0.7,0.2,1,0.2c0.6,0,1.2-0.1,1.7-0.4c0.5-0.2,0.9-0.6,1.2-1.1c0.3-0.5,0.4-1.1,0.4-1.6
			c0-0.5-0.1-1-0.4-1.5c-0.2-0.4-0.5-0.7-0.9-1c-0.4-0.3-0.9-0.4-1.4-0.4l0,0l2.2-2.4c0.1-0.1,0.1-0.1,0.1-0.2
			c0-0.1,0.1-0.1,0.1-0.2c0-0.1,0-0.3-0.1-0.4C55.4,45,55.2,45,55.1,45h-4.3c-0.1,0-0.3,0-0.4,0.1c-0.1,0.1-0.1,0.2-0.1,0.3
			C50.3,45.7,50.5,46,50.8,45.9L50.8,45.9z"/>
		<path d="M58.6,53.6c1.1,0.8,2.5,0.8,3.6,0c0.5-0.4,0.9-1,1.1-1.7c0.5-1.6,0.5-3.2,0-4.8c-0.2-0.6-0.6-1.2-1.1-1.7
			c-1.1-0.8-2.5-0.8-3.6,0c-0.5,0.4-0.9,1-1.1,1.7c-0.5,1.6-0.5,3.2,0,4.8C57.8,52.5,58.1,53.1,58.6,53.6z M58.6,47.6
			c0.1-0.5,0.4-0.9,0.7-1.2c0.7-0.6,1.7-0.6,2.3,0c0.3,0.3,0.6,0.8,0.7,1.2c0.3,1.3,0.3,2.6,0,3.9c-0.1,0.5-0.4,0.9-0.8,1.3
			c-0.7,0.6-1.7,0.6-2.3,0c-0.3-0.3-0.6-0.8-0.7-1.3C58.2,50.2,58.2,48.8,58.6,47.6L58.6,47.6z"/>
		<path d="M89.4,23.6h-3.5c0,0,0-0.1,0-0.1c0-0.8-0.2-1.5-0.4-2.2c1.7-2.2,1.4-5.3-0.7-7.1c-0.9-0.7-2-1.1-3.2-1.1
			c-1.8,0-3.5,1-4.4,2.5c-2.3-1.9-5.6-1.5-7.5,0.8c-0.8,1-1.2,2.2-1.2,3.4V20c-0.4-0.1-0.9-0.2-1.3-0.2c-2.3,0-4.2,1.6-4.6,3.8H9.7
			c-0.5,0-0.9,0.4-0.9,0.9v55.6c0,0.5,0.4,0.9,0.9,0.9h30.6v8.3h-7c-0.5,0-0.9,0.4-0.9,0.9s0.4,0.9,0.9,0.9h32.4
			c0.5,0,0.9-0.4,0.9-0.9s-0.4-0.9-0.9-0.9h-7V81h30.6c0.5,0,0.9-0.4,0.9-0.9V24.5C90.3,24,89.9,23.6,89.4,23.6z M81.6,13.8
			c2.4,0,4.3,1.9,4.3,4.3c0,0.9-0.3,1.8-0.8,2.5c-1-1.7-2.9-2.8-4.9-2.8c-0.4,0-0.9,0.1-1.3,0.2c-0.3-0.7-0.7-1.3-1.2-1.9
			C78.5,14.7,80,13.8,81.6,13.8z M63.3,23.6c0.4-1.8,2-3.1,3.9-3.1c0.5,0,1.1,0.1,1.6,0.3l0.6,0.3l-0.1-0.6c0-0.2-0.1-0.4-0.1-0.6
			c0-2.6,2.1-4.7,4.7-4.7c2.1,0,3.9,1.4,4.5,3.3l0.1,0.3l0.3-0.1c0.5-0.1,1-0.2,1.5-0.2c2.8,0,5,2.2,5,5c0,0,0,0.1,0,0.1
			c0,0.6-0.1,1.3-0.4,1.9c-0.8,1.9-2.6,3-4.6,3h-13c-1.8,0-3.4-1.3-3.9-3c-0.1-0.3-0.1-0.7-0.1-1C63.2,24.2,63.2,23.9,63.3,23.6z
			 M56.9,89.4H42.1V81h14.8V89.4z M88.4,79.2H10.6v-4.5h77.8V79.2z M88.4,72.8H10.6V32.6h77.8V72.8z M88.4,30.8H10.6v-5.3h52
			c0.5,2.2,2.4,3.7,4.6,3.7h13c2.4,0,4.5-1.5,5.3-3.7h2.9V30.8z"/>
		<path d="M77.3,13.6c0.1,0.1,0.3,0.2,0.5,0.1s0.2-0.3,0.1-0.5l-2-2.7c-0.1-0.1-0.3-0.2-0.5-0.1c-0.1,0.1-0.2,0.3-0.1,0.5l0,0
			L77.3,13.6z"/>
		<path d="M82.2,12.7L82.2,12.7c0.2,0,0.4-0.1,0.4-0.3l0.6-3.3c0-0.2-0.1-0.4-0.3-0.4c-0.2,0-0.4,0.1-0.4,0.3l0,0L82,12.3
			C81.9,12.5,82,12.7,82.2,12.7z"/>
		<path d="M86.6,15.4c0.1,0,0.1,0,0.2-0.1l2.7-2c0.1-0.1,0.2-0.3,0.1-0.5c-0.1-0.1-0.3-0.2-0.5-0.1l0,0l-2.7,2
			c-0.1,0.1-0.2,0.3-0.1,0.5C86.4,15.4,86.5,15.4,86.6,15.4L86.6,15.4z"/>
		<path d="M91,19.2L87.6,19c-0.2,0-0.3,0.1-0.4,0.3c0,0.2,0.1,0.3,0.3,0.4c0,0,0,0,0,0l3.3,0.2l0,0c0.2,0,0.3-0.1,0.3-0.3
			C91.2,19.3,91.1,19.2,91,19.2L91,19.2z"/>
	</g>
</g>
</svg>
