<?xml version="1.0" encoding="utf-8"?>
<!-- Generator: Adobe Illustrator 21.0.0, SVG Export Plug-In . SVG Version: 6.00 Build 0)  -->
<svg version="1.1" id="Layer_1" xmlns="http://www.w3.org/2000/svg" xmlns:xlink="http://www.w3.org/1999/xlink" x="0px" y="0px"
	 viewBox="0 0 100 100" style="enable-background:new 0 0 100 100;" xml:space="preserve">
<title>Asset 3</title>
<g id="Layer_2">
	<g id="Layer_1-2">
		<g id="newsFeed">
			<path d="M42.3,29.1c0.4,0,0.8-0.1,1.2-0.3v-1.6c-0.2,0.2-0.5,0.3-0.9,0.4c-0.4,0-0.7-0.2-0.9-0.6c-0.2-0.5-0.4-1-0.3-1.5
				c0-0.6,0.1-1.1,0.3-1.7c0.2-0.3,0.5-0.6,0.9-0.6c0.3,0,0.6,0.2,0.9,0.4v-1.6c-0.3-0.2-0.7-0.2-1.1-0.3c-0.5,0-1,0.2-1.4,0.5
				c-0.4,0.4-0.8,0.8-0.9,1.3c-0.2,0.6-0.3,1.2-0.3,1.8c0,0.9,0.2,1.8,0.7,2.6C40.8,28.7,41.5,29.1,42.3,29.1z"/>
			<path d="M46.6,29.1c0.8,0,1.5-0.4,1.9-1c0.5-0.8,0.8-1.7,0.7-2.7c0.1-0.9-0.2-1.9-0.7-2.6c-0.5-0.6-1.2-1-2-1
				c-0.4,0-0.9,0.2-1.2,0.4c-0.4,0.3-0.7,0.8-0.9,1.3c-0.2,0.6-0.3,1.3-0.3,1.9c0,0.9,0.2,1.8,0.7,2.6
				C45.1,28.7,45.9,29.1,46.6,29.1z M46,23.9c0.1-0.3,0.4-0.5,0.8-0.6c0.3,0,0.5,0.2,0.6,0.6c0.2,0.5,0.3,1,0.3,1.6
				c0,0.5-0.1,1.1-0.3,1.6c-0.2,0.4-0.4,0.6-0.7,0.6c-0.3,0-0.5-0.2-0.7-0.6c-0.2-0.5-0.3-1-0.3-1.6C45.7,24.9,45.8,24.4,46,23.9
				L46,23.9z"/>
			<polygon points="52.6,29 54.4,22 52.6,22 51.8,26.6 51,22 49.2,22 51,29 			"/>
			<rect x="55" y="22" width="1.7" height="7"/>
			<path d="M61.6,28c0.5-0.8,0.8-1.7,0.7-2.6c0-0.6-0.1-1.2-0.3-1.8c-0.1-0.5-0.4-0.9-0.9-1.2c-0.5-0.3-1-0.5-1.5-0.4h-2.1v7h1.8
				C60.3,29.1,61.1,28.7,61.6,28z M59.3,27.6v-4.3h0.2c0.4,0,0.7,0.2,0.9,0.5c0.2,0.5,0.3,0.9,0.3,1.4
				C60.6,26.9,60.2,27.6,59.3,27.6L59.3,27.6z"/>
			<path d="M67.3,29h1.5v-6.7h-1.3v0.2c0,0.3-0.1,0.6-0.3,0.8c-0.2,0.2-0.5,0.3-0.8,0.3h-0.2v1.2h1.1L67.3,29z"/>
			<path d="M72.5,26.8c0.2,0,0.4-0.1,0.6-0.2c0.2-0.1,0.4-0.3,0.6-0.5c0,0.4-0.1,0.8-0.4,1.2c-0.2,0.3-0.5,0.4-0.9,0.4
				c-0.4,0-0.8-0.2-1.2-0.5v1.5c0.4,0.2,0.9,0.3,1.3,0.3c0.5,0,1.1-0.2,1.5-0.5c0.4-0.3,0.7-0.8,0.9-1.3c0.2-0.6,0.3-1.1,0.3-1.7
				c0.1-0.9-0.2-1.8-0.7-2.6c-0.4-0.6-1-0.9-1.7-0.9c-0.6,0-1.1,0.3-1.5,0.7c-0.4,0.5-0.6,1.1-0.6,1.7c0,0.6,0.2,1.1,0.5,1.6
				C71.6,26.6,72,26.8,72.5,26.8z M72.6,23.8c0.1-0.2,0.2-0.3,0.4-0.3c0.2,0,0.3,0.1,0.4,0.3c0.1,0.3,0.2,0.6,0.2,0.9
				c-0.1,0.2-0.2,0.4-0.4,0.5c-0.1,0.1-0.2,0.2-0.3,0.2c-0.2,0-0.3-0.1-0.4-0.3c-0.1-0.2-0.2-0.4-0.1-0.7
				C72.4,24.3,72.5,24,72.6,23.8L72.6,23.8z"/>
			<rect x="38.4" y="62.5" width="37.8" height="0.9"/>
			<rect x="38.4" y="58" width="37.8" height="0.9"/>
			<rect x="38.4" y="53.4" width="37.8" height="0.9"/>
			<path d="M93.8,60.8L83.1,49.7V15.2c0-0.2-0.2-0.4-0.4-0.4h-3v-3c0-0.2-0.2-0.4-0.4-0.4h-3.3C69.1,0.8,55-2.2,44.4,4.7
				c-2.6,1.7-4.9,4-6.6,6.6h-3.3c-0.2,0-0.4,0.2-0.4,0.4v56.7c0,0.2,0.2,0.4,0.4,0.4h3v3c0,0.2,0.2,0.4,0.4,0.4h44.7
				c0.2,0,0.4-0.2,0.4-0.4V54.7l8.2,8.6c0.7,0.7,1.7,0.7,2.4,0.1C94.4,62.6,94.5,61.6,93.8,60.8L93.8,60.8z M78.8,12.2v5.4
				c-0.5-1.9-1.3-3.7-2.3-5.4H78.8z M56.9,2.7c6.7,0,13,3.2,17,8.6H39.9C43.9,5.9,50.2,2.7,56.9,2.7z M39.3,12.2h35.1
				c6.4,9.7,3.8,22.8-5.9,29.2s-22.8,3.8-29.2-5.9C34.7,28.4,34.7,19.2,39.3,12.2L39.3,12.2z M78.8,30v15.2l-4.8-5
				c-0.2-0.2-0.5-0.4-0.9-0.5C75.8,37,77.8,33.6,78.8,30z M35,12.2h2.3c-1,1.7-1.8,3.5-2.3,5.4V12.2z M37.5,68.1H35V30
				c3.4,12.1,16,19.1,28.1,15.7c2.9-0.8,5.7-2.2,8-4.1c0,0.4,0.2,0.7,0.5,1l7.3,7.6v17.9H37.5L37.5,68.1z M82.2,71.5H38.4v-2.6h40.8
				c0.2,0,0.4-0.2,0.4-0.4V51.1l2.6,2.7V71.5z M82.2,48.8l-2.6-2.7V15.6h2.6V48.8z"/>
			<path d="M74.5,77.3H9.3v-29c0-2.6,2.1-4.6,4.6-4.6h17.1v-3.1H14c-4.3,0-7.7,3.5-7.7,7.7l0,0v33.7c0,4.3,3.5,7.7,7.7,7.7h12.4v6.2
				h-6.2V99h43.4v-3.1h-6.2v-6.2h12.4c4.3,0,7.7-3.5,7.7-7.7v-7.4h-3.1V77.3z M54.4,95.9H29.5v-6.2h24.9V95.9z M74.5,81.9
				c0,2.6-2.1,4.6-4.7,4.7H14c-2.6,0-4.6-2.1-4.7-4.7v-1.5h65.2L74.5,81.9z"/>
		</g>
	</g>
</g>
</svg>
