<?xml version="1.0" encoding="utf-8"?>
<!-- Generator: Adobe Illustrator 21.0.0, SVG Export Plug-In . SVG Version: 6.00 Build 0)  -->
<svg version="1.1" id="Layer_1" xmlns="http://www.w3.org/2000/svg" xmlns:xlink="http://www.w3.org/1999/xlink" x="0px" y="0px"
	 viewBox="0 0 303.7 287.1" style="enable-background:new 0 0 303.7 287.1;" xml:space="preserve">
<style type="text/css">
	.st0{fill:#009187;}
	.st1{fill:#FFFFFF;}
	.st2{fill:#FFE031;}
	.st3{fill:none;stroke:#009187;stroke-width:3;stroke-miterlimit:10;}
	.st4{fill:none;stroke:#FFFFFF;stroke-width:3;stroke-miterlimit:10;}
	.st5{fill:none;stroke:#FFE031;stroke-width:3;stroke-miterlimit:10;}
</style>
<g id="Layer_2">
	<g id="photo">
		<path class="st0" d="M134.3,88.3c16.3-2.3,26-24.3,37.9-38.8c10.1-12.4,29-13.4,40-1.7c14.2,15.3,1.7,38.3-4.9,60
			c-2.6,8.5,1.5,17.6,9.6,21.3c4.6,2.1,9.4,3.2,13.4,5.4c7.1,4,9.7,13,5.7,20.2c-0.8,1.4-1.8,2.7-3,3.7c-3.1,2.9-6.8,5-9.9,7.1
			c-4.6,3.2-5.8,9.5-2.6,14c0.9,1.3,2.1,2.4,3.5,3.2c16.9,8.9,48.7,0.2,57.1,29c1.8,5.7,1.6,11.8-0.3,17.5
			c-5.7,15.8-24.4,20.8-57.8,28.2c-29.1,6.5-38.8,19.9-88.9,19.9c-33.6,0-31.8-11.4-52.2-19.5c-3.4-1.4-7-2-10.7-2
			c-47.1,0.8-65.2-13-70.3-29.9c-3.5-11.7,3.2-24,14.9-27.5c1.7-0.5,3.5-0.8,5.3-0.9c16.3-0.8,38.4,2,56.4-11.1
			c9.3-6.8,11.4-19.7,4.9-29.2c-26.3-37.8-32-65.4-11.3-80C93.7,60.6,107.7,91.3,134.3,88.3z"/>
		<path d="M133.2,264.8c2.2,0.9,4.3,1.8,5.2,2c7,1.8,14.1,2.6,21.1,4.6c4,1.1,7.8,2.8,11.4,5c2,1.2,3.7,2.8,5,4.7
			c0.8,1.3,1.4,2.7,2.2,3.9s2.1,2.1,3.3,1.9c2-0.4,2.8-3.5,2.9-6c0.2-4.2-0.6-8.5-2.4-12.3c-0.9-2-2.3-3.8-4-5.2
			c-1.6-1.1-3.4-1.9-5.3-2.2c-8.6-1.8-16.1,1-26-1.6c-0.4-0.1-0.8-0.2-1.1-0.4l0,0C138.4,261.7,134.7,261.5,133.2,264.8z"/>
		<path d="M87.1,254.7c-3-0.8-5.9-2.5-8.9-2.5c-4-0.1-7.7,2.6-10.6,6.1c-1.7,2-3.2,5-2.3,7.6c0.8,2.1,2.9,2.8,4.7,2.9
			c3.7,0.2,7.4-1.1,11-2.1c12.7-3.5,25.8-4,38.8-3.9c2.3,0.2,4.6,0.2,6.9-0.1c-9.3-2.9-19.4-5.4-29.2-7.9
			C94,255.5,90.5,255.5,87.1,254.7z"/>
		<path d="M212.7,225.6c-2.4-3.6-4.7-7.2-6.9-11l1.2,0.1c0.4,0.1,0.9,0.1,1.3,0c0.9-0.3,1.5-1,1.7-1.9s0.2-1.8,0.1-2.6
			c0-0.5-0.1-0.9-0.2-1.4c-0.2-0.5-0.4-1-0.6-1.5c-0.4-1.1-0.6-2.4-0.4-3.6c0.1-0.9-0.4-0.6-0.8-0.1c-0.2,0-0.3,0-0.4,0.1
			c-1.2,1.2-2.8,1.4-4.9,1.4c-5.1-2.6-23-35.1-30.5-42.1c-1.1-1-1.9-2.3-2.3-3.7c-3.2-11,2.2-33.8,0-48.5c-1-6.1-5.2-11.1-11.1-13.1
			L144.6,93c-0.8,11.6,1.2,22.1,7.6,31.4c3,9.6,1.3,24,4.7,43.6c0.4,2.5,1.6,4.8,3.3,6.7c14.3,15.6,25.6,18.1,38.3,36.9l0.2,0.6
			c1.7,0.9,3.4,2.1,4.8,3.4c2.6,2.3,4.4,5.4,4.9,8.8c1,0.9,2.1,1.7,3.3,2.4c0.4,0.2,0.9,0.1,1.1-0.3
			C212.9,226.2,212.9,225.8,212.7,225.6z M203.4,209.4v-0.1c0.1-0.1,0.1-0.2,0.2-0.3c0.3-0.6,0.8-1,1.5-1.2c0.7-0.1,1.3-0.4,1.9-0.8
			c0,1,0.2,2,0.2,2.9c0,0.3-0.1,0.6-0.3,0.9c-0.2,0.2-0.5,0.3-0.7,0.2C205.1,211,204.4,209.8,203.4,209.4L203.4,209.4z"/>
		<path d="M95.1,129.6v-0.5h0.4c6.9-10.5,11.8-23.4,9.9-36.7l-18.7,9.7c-3.7,1.9-6.1,5.5-6.5,9.6c-1.2,12.7,2.8,35.5,0.9,50.6
			c-0.2,2-1.2,3.8-2.8,5.1c-7.8,6.4-17.6,22.7-28.9,35.4c-1.2,0.3-2.5,0.5-3.7,0.6c-0.7,0.2-1.4,0.1-2.1-0.2c-0.5-0.4-1-0.8-1.4-1.2
			c-0.4-0.5-1.1-0.6-1.7-0.4c-0.1,0.1-0.3,0.2-0.3,0.4c-0.3-0.2-0.7-0.3-1.1-0.2c0.4,2.8,0,5.6-1.3,8.1c-0.5,0.6-0.7,1.4-0.6,2.2
			c0.2,0.5,0.7,0.9,1.2,1.1c0.6,0.1,1.1,0.2,1.7,0.1h2.5H43c-1.9,3.1-6.3,6.1-8.7,8.9c-0.3,0.5-0.1,1.1,0.3,1.4
			c0.3,0.2,0.6,0.2,0.9,0.1l12.1-7.8c1-0.7,1.8-1.7,2.1-2.9l0.7-2.6c0.3-0.9,0.8-1.8,1.5-2.4c16.5-13.9,33.7-24,41.3-35.4
			c1.1-1.7,1.8-3.6,1.9-5.7c0.9-12.3,0.8-24.7-0.2-37v-0.1L95.1,129.6z M44.2,209.3c-0.6,0.3-1.4,0.3-2,0c-0.1-0.1-0.3-0.1-0.3-0.3
			c-0.1-0.3-0.2-0.6-0.1-0.9c0.1-0.8,0.1-1.7,0-2.5c0.2,0.3,0.4,0.6,0.7,0.8c0.5,0.2,1,0.4,1.5,0.4l2.2,0.2h0.3
			C45.7,207.7,45.2,208.8,44.2,209.3z"/>
		<path d="M137.8,90.2h0.1c-5.6-3.4-9-9.6-9-16.2c0-0.1,0-0.2,0-0.3c2.5,1.3,5.2,1.9,8,1.9c1.5,0,2.8-1.3,2.8-2.8
			c0.2-3.8,0.8-7.6,1.8-11.3c0.2-0.8,0.7-1.5,1.4-1.9l3.2-2c-4-2.6-4.6-7.5-4.3-16.7c0.1-7.3-6.9-12.8-23.1-12.4
			c-0.5-8.1-3.7-11.5-9.9-10.1c-3.1,0.7-5.8,2.6-7.4,5.4c-2.9,5.3-0.2,10.9,5.4,13.9C98.5,56,107.1,64.5,119.3,71
			c0.2,4.4-0.9,8.8-3.1,12.7c-1.3,2.2-3.1,4.1-5.2,5.6C113.7,128.3,138.9,121.8,137.8,90.2z"/>
		<path class="st1" d="M203.4,215.4c-1.4-1.3-3.1-2.5-4.8-3.4c-4.3-2.3-9.2-3.2-14-2.8c-11.3,1.1-22.6,1.8-33.7,2.1
			c-17.5,3.5-35.5,3.3-52.9-0.7c0.2-0.9,0.4-1.7,0.7-2.6c-3.8-0.7-7.6-1.4-11.4-2.2c-18-2.4-30.3,1.3-38.5,9.5
			c-5.7,5.6-5.8,14.8-0.3,20.5c0.1,0.1,0.2,0.2,0.3,0.3c9,8.6,28.3,13.5,48.7,18.6c9.8,2.5,19.9,4.9,29.2,7.9
			c2.2,0.7,4.4,1.4,6.6,2.2l0,0c1.4-3.3,5.1-3.1,12.3-5.5l0,0c-4.4-2.5-8.5-5.4-12.4-8.6c-1.4-1.1-2.8-2.3-4.1-3.4
			c-0.2,0-0.3-0.1-0.3-0.3l0,0c-5.5-4.8-11.3-9.2-17.3-13.2c-9-5.9-19.5-8.9-30.3-8.9c-0.3,0-1-1.7-0.6-1.7c6.5,0,13,1.2,19.2,3.4
			c11.5,4.1,20.2,12.3,29.4,20c4.4-1,8.6-2.9,12.3-5.5c6.8-4.6,12.6-10.5,19.6-14.7c3.3-2,6.9-3.4,10.8-4c4.2-0.5,8.4,0,12.4,1.4
			c0.3,0.1-0.6,1.1-1,1c-4.7-1.6-7.9-1.6-12.6-0.9c-8,1.1-13,5.5-19.1,10.4c-5.9,4.8-14.3,11.1-21.9,12.8c5,4.4,10.5,8.2,16.4,11.4
			c15.7-5,39.9-9,53.2-16.1c2.5-1.4,4.6-3.4,6-5.9c2.5-4.4,3.6-8.6,3.1-12.4C207.7,220.8,206,217.7,203.4,215.4z"/>
		<path class="st2" d="M150.9,211.3c1-0.2,2.1-0.4,3.1-0.6c-9.8-27.4-11.9-56.5-1.9-86.4c-6.4-9.3-8.3-19.8-7.6-31.4l0,0l-6.6-2.7
			h-0.1c1.1,31.7-24.1,38.2-26.9-0.8l0,0l-5.6,3.1l0,0c1.9,13.4-3,26.2-9.9,36.7l-0.3,0.5v0.1v0.1c13.1,24.9,10.2,51.1,3.6,78.3
			c-0.2,0.9-0.4,1.7-0.7,2.6C115.4,214.6,133.4,214.8,150.9,211.3z"/>
		<path class="st3" d="M110.3,55.1c-0.4,1.9,0.5,3,1.8,4.2c3.4,2.9,3.7,8,0.7,11.4c-0.5,0.6-1,1-1.7,1.4c-2.5,1.5-5.6,1.5-8.2,0.1
			c-4.1-2.1-6.6-6.4-6.5-11C96.8,42.4,91.7,45,84,38.8c-6.2-5-8.4-13.5-5.3-20.8C84,5.4,100-0.8,122.2,2.1c1.9,0.2,3.7,0.8,5.3,1.9
			c6.6,4.7,1.6,10.3,5.4,14.5c6,6.4,11.2,1.5,14.9,6.9c1.6,2.4,2,5.5,0.9,8.2c-3,8.3-13.4,11.6-22.5,9.3c-0.7-0.2-1.5-0.3-2.2-0.2
			c-7.3,0.4-3.1,8.8-4.8,12.8c-0.2,0.5-0.5,0.8-1,1c-2.2,0.5-2.8-4.7-5.8-3.9C111.4,53.1,110.6,54,110.3,55.1z"/>
		<path class="st4" d="M253,173.1c-2.4-3.1-5.8-6.8-4.5-10.9c0.7-2.1,2.2-3.7,4.3-4.5c13.2-5.1,22.2,1.8,22.6,13.9
			c0.1,5.6,3.5,10.5,8.6,12.7c8.3,3.4,17.8,2.9,18.2,8.7c0.1,1.7-0.6,3.3-1.8,4.4c-9.5,9.4-26.2-11-30.8-1.8c-4.6,9.7,7.4,19,2,24.9
			c-2.1,2.2-5.4,2.7-8.1,1.3c-8.3-4.1-9.1-15.3-13.1-21.2c-1.7-2.4-4.9-3-7.3-1.3c-0.4,0.3-0.8,0.6-1.1,1
			c-3.4,4.3-6.1,10.8-12.9,8.2c-3.2-1.3-5.8-3.9-7.2-7.1c-4.9-11-2.4-21.2,28.6-22.8c1.9-0.1,3.4-1.6,3.3-3.5
			C253.7,174.3,253.4,173.6,253,173.1z"/>
		<path class="st3" d="M62,153.7c13.7-0.1,15.7,20.6,8.9,32.7c-1.2,2.2-3.6,3.4-6.1,3.1h-0.1c-3.4-0.6-5.9-3.7-5.5-7.2
			c0.3-2.7-0.6-4.5-2.4-5.6c-1.6-0.9-3.4-1-5.1-0.3c-14.7,5.8-22.8,4.6-26.3-1.3c-1-1.8-1.6-3.9-1.5-6c-0.1-7.9,2-13.3,6.5-15.9
			c3.7-2.1,8.3-0.8,10.4,2.8c0.3,0.5,0.5,1,0.7,1.6c2,6.6,2.7,15.6,11.5,13.7C65.2,168.2,52.3,156.4,62,153.7z"/>
		<path class="st3" d="M226,268.9c2.8-1.4,5.9-2.1,9-1.9c2,0,4.1,0.4,5.9,1.3c1.5,0.7,2.7,2,3.3,3.6c0.6,1.5,1,3.9-0.1,5.2
			c-0.5,0.6-1.2,0.9-2,1c-2.3,0.5-4.6-0.2-6.9-0.3c-2.2,0-4.5,0.4-6.5,1.4c-1.3,0.6-2.7,1.5-4.1,1.4c-2.8-0.1-3.8-3.1-3.3-5.4
			C221.8,272.5,223.6,270.2,226,268.9z"/>
		<path class="st4" d="M215.6,123.1c-1.1,1.9-1.5,4.2-1.1,6.4c0.1,0.9,0.6,1.6,1.2,2.2c1.1,0.8,2.8,0.7,4.1,0.4
			c3.5-0.7,8.4-3.2,7.6-7.5C226.3,119.2,218.1,118.9,215.6,123.1z"/>
		<path class="st5" d="M55.1,70.6c-0.6-1.1-0.8-2.4-0.5-3.6c0.5-2.3,2.6-3.4,4.9-3.4c0.8-0.1,1.7,0.2,2.3,0.7
			c0.7,0.7,1.1,1.5,1.2,2.4c0.2,0.9,0.2,1.9,0,2.8C62.1,72.2,56.6,73.4,55.1,70.6z"/>
		<path class="st5" d="M28.1,128c-2.6-1.4-4.1-4.3-3.6-7.2c0.5-2.9,2.5-5.3,5.2-6.4c3.1-1.3,8.4-1.2,10.4,2c1.8,3-0.2,7.3-2.5,9.4
			S31.3,129.5,28.1,128z"/>
	</g>
</g>
</svg>
